<svg width="25" height="37" fill="none" xmlns="http://www.w3.org/2000/svg"><path d="M20.83 1.185c1.417 0 2.565 1.074 2.565 2.398v29.98c0 1.325-1.148 2.4-2.564 2.4H3.205c-1.416 0-2.564-1.075-2.564-2.4V3.584c0-1.324 1.148-2.398 2.564-2.398H20.83z" fill="#D1E7FF"/><path d="M16.05 14.055c.613 0 1.127.433 1.194 1.003l.857 7.366c.078.665-.48 1.246-1.195 1.246H7.13c-.716 0-1.272-.58-1.195-1.246l.858-7.366c.066-.57.58-1.003 1.194-1.003h8.063z" fill="#B9DCFF"/><path d="M20.952 1.187c2.062.09 1.952 2.996-.112 2.996H12.5c-4.78 0-8.653 3.624-8.653 8.094v23.685h-.641c-1.416 0-2.564-1.074-2.564-2.398V3.583c0-1.325 1.148-2.398 2.564-2.398.116 0 17.653-.002 17.747.002z" fill="#E8F3FF"/><path d="M23.395 30.716v2.848c0 1.324-1.148 2.398-2.564 2.398H3.205c-1.416 0-2.564-1.074-2.564-2.398v-2.848h22.754z" fill="#B9DCFF"/><path d="M3.846 30.716v2.857c0 1.953-3.205 2.053-3.205-.01v-2.847h3.205zM16.05 16.304c-3.883 0-7.056 2.734-7.466 6.256-.074.632-.644 1.11-1.323 1.11H7.13c-.716 0-1.272-.58-1.195-1.246l.858-7.366c.066-.57.58-1.003 1.194-1.003h8.063c.613 0 1.128.432 1.195 1.003.077.666-.48 1.246-1.195 1.246z" fill="#D1E7FF"/><path d="M20.83.585H3.206C1.438.585 0 1.93 0 3.583v29.98c0 1.654 1.438 2.999 3.205 2.999H20.83c1.767 0 3.204-1.345 3.204-2.998V3.583c0-1.653-1.437-2.998-3.204-2.998zm0 34.777H3.206c-1.06 0-1.923-.806-1.923-1.798V3.583c0-.992.863-1.799 1.923-1.799H20.83c1.06 0 1.922.807 1.922 1.799v26.533H4.406c-.353 0-.64.268-.64.6 0 .33.287.6.64.6h18.347v2.248c0 .992-.862 1.798-1.922 1.798zm-7.37-2.173c0 .331-.287.6-.641.6h-1.603c-.353 0-.64-.269-.64-.6 0-.331.287-.6.64-.6h1.603c.354 0 .64.269.64.6zm-6.331-8.92h9.778c1.096 0 1.95-.89 1.831-1.91l-.857-7.366c-.102-.876-.89-1.537-1.832-1.537h-.593v-1.11c0-1.774-1.542-3.217-3.438-3.217-1.896 0-3.438 1.443-3.438 3.217v1.11h-.594c-.942 0-1.73.66-1.832 1.537l-.857 7.366c-.119 1.02.736 1.91 1.832 1.91zm-.558-1.78l.858-7.366a.548.548 0 01.557-.468h.593v.936c0 .33.287.6.641.6.354 0 .641-.27.641-.6v-3.245c0-1.112.968-2.017 2.157-2.017s2.156.905 2.156 2.017v1.11h-2.772c-.354 0-.641.269-.641.6 0 .33.287.6.64.6h2.773v.935c0 .33.287.6.64.6.355 0 .642-.27.642-.6v-.936h.593c.287 0 .527.201.558.468l.857 7.366c.036.31-.222.581-.558.581H7.13c-.334 0-.594-.27-.558-.581z" fill="#007FFC"/></svg>