<svg width="39" height="36" fill="none" xmlns="http://www.w3.org/2000/svg"><path d="M33.027 16.934c.768 1.245-.153 2.809-1.69 2.864a42.315 42.315 0 00-16.717 4.096l-1.783.962c0 .008-.024-.04 4.316 7.022.398.646.161 1.471-.528 1.844l-1.406.76c-.69.372-1.573.15-1.971-.495l-4.33-7.014-.702.38c-1.38.745-3.146.302-3.943-.989l-3.246-5.26C.23 19.812.703 18.16 2.084 17.415l6.404-3.459c4.894-2.961 9.041-6.883 12.15-11.496.82-1.217 2.727-1.181 3.495.064l2.778 4.501c1.596-.862 3.638-.35 4.56 1.143.92 1.493.373 3.402-1.223 4.264l2.779 4.502z" fill="#D1E7FF"/><path d="M31.47 8.168c.921 1.493.374 3.402-1.222 4.264l-3.337-5.407c1.596-.862 3.638-.35 4.559 1.143z" fill="#D1E7FF"/><path d="M24.134 2.524a1.789 1.789 0 01-.066 1.99c-3.422 4.824-8.009 9.183-13.618 12.578l-7.504 4.053a3.272 3.272 0 00-1.208 1.11l-.711-1.151C.23 19.812.703 18.16 2.084 17.415l6.404-3.459c4.894-2.961 9.041-6.883 12.15-11.496.82-1.217 2.727-1.181 3.495.064z" fill="#E8F3FF"/><path d="M8.488 13.956l6.132 9.938c-1.229.663-5.177 2.795-6.404 3.459-1.38.745-3.146.302-3.943-.989l-3.246-5.26C.23 19.812.703 18.16 2.084 17.415l6.404-3.459z" fill="#B9DCFF"/><path d="M10.43 17.104c-8.149 4.4-7.609 4.094-7.872 4.286-.495.36-1.217.222-1.531-.286-.797-1.292-.324-2.943 1.056-3.689l6.404-3.459 1.943 3.148z" fill="#D1E7FF"/><path d="M14.005 26.755c-2.28 1.235-.603.327-3.915 2.115l-1.171-1.897 3.918-2.116 1.168 1.898zm17.265-15.18a3.22 3.22 0 01-1.022.857l-3.337-5.407a3.471 3.471 0 011.305-.399l3.054 4.949z" fill="#B9DCFF"/><path d="M31.098 12.61c2.501-1.912 1.637-5.692-1.489-6.476a4.205 4.205 0 00-2.437.115L24.69 2.224C23.678.587 21.17.544 20.095 2.14 17.04 6.673 12.971 10.528 8.14 13.453a.578.578 0 00-.214.79l4.167 6.754a.666.666 0 00.876.22.58.58 0 00.234-.82l-3.858-6.251c4.607-2.881 8.688-6.696 11.836-11.367.563-.835 1.871-.81 2.398.045l8.893 14.41c.528.855-.105 1.927-1.158 1.965a42.98 42.98 0 00-16.985 4.16l-6.433 3.474c-1.072.58-2.448.235-3.066-.768l-3.247-5.261c-.619-1.003-.25-2.29.822-2.869l3.907-2.11a.579.579 0 00.235-.82.665.665 0 00-.876-.219l-3.907 2.11C.08 17.806-.5 19.828.473 21.404l3.246 5.26c.973 1.576 3.134 2.117 4.818 1.208l.148-.08 4.008 6.495c.576.933 1.85 1.252 2.847.714l1.406-.76c.997-.539 1.339-1.73.763-2.663l-2.841-4.603a.666.666 0 00-.876-.22.579.579 0 00-.234.82l2.84 4.603c.222.359.09.817-.293 1.025l-1.406.759c-.384.207-.874.084-1.095-.275l-4.009-6.495 5.132-2.772a41.627 41.627 0 0116.437-4.023c2.02-.073 3.228-2.128 2.218-3.763l-2.483-4.025zm-.183-4.142c.632 1.025.405 2.298-.47 3.082l-2.62-4.243c1.149-.315 2.447.119 3.09 1.16zm6.269-2.666l-1.659.896a.665.665 0 01-.875-.22.579.579 0 01.234-.819l1.659-.896a.665.665 0 01.875.22.579.579 0 01-.234.819zm-7.132-3.418l.404-1.411c.092-.32.443-.51.785-.424.342.085.545.414.453.734l-.404 1.412c-.092.319-.442.51-.785.424-.342-.086-.545-.415-.453-.735zm8.383 9.82a.636.636 0 01-.62.445c-.115 0-.034.013-1.675-.399-.342-.085-.544-.414-.453-.734.092-.32.443-.51.785-.424l1.51.378c.341.086.544.415.453.735z" fill="#007FFC"/></svg>