<svg width="38" height="38" fill="none" xmlns="http://www.w3.org/2000/svg"><rect width="38" height="38" rx="5" fill="#EFEEF3"/><path d="M18.688 9C13.346 9 9 13.346 9 18.688c0 5.341 4.346 9.687 9.688 9.687 5.341 0 9.687-4.346 9.687-9.688 0-5.341-4.346-9.687-9.688-9.687zm6.405 4.467a8.236 8.236 0 011.868 5.155c-.273-.058-3.008-.613-5.762-.266a25.62 25.62 0 00-.727-1.626c3.06-1.25 4.446-3.027 4.62-3.263zm-.92-.957c-.15.213-1.395 1.887-4.337 2.99a44.166 44.166 0 00-3.088-4.845 8.254 8.254 0 017.425 1.856zm-9.003-1.298a52.867 52.867 0 013.067 4.785c-3.87 1.028-7.28 1.013-7.65 1.008a8.305 8.305 0 014.583-5.793zM10.413 18.7c0-.084.002-.169.004-.253.362.008 4.372.06 8.504-1.177.237.463.463.934.671 1.404-2.992.843-5.71 3.263-7.052 5.559a8.242 8.242 0 01-2.127-5.533zm3.195 6.528c.865-1.767 3.21-4.048 6.546-5.186 1.162 3.02 1.643 5.55 1.766 6.275a8.258 8.258 0 01-8.312-1.089zm9.703.332c-.085-.504-.525-2.926-1.608-5.9 2.593-.415 4.871.264 5.155.354a8.29 8.29 0 01-3.547 5.546z" fill="#0D0D0D"/></svg>