<svg width="80" height="80" fill="none" xmlns="http://www.w3.org/2000/svg"><g clip-path="url(#clip0)"><path d="M57.807 38.58l6.745 5.091a1.504 1.504 0 002.146-.347l6.119-8.862a1.52 1.52 0 00-.086-1.84l-10.4-12.4-4.524 18.358z" fill="#57BE92"/><path d="M22.194 77.899v-38.58c0-.49-.06-.98-.177-1.456l-4.348-17.64 11.019-4.546h22.625l11.019 4.546-4.348 17.64a6.084 6.084 0 00-.177 1.456V77.9c0 .837-.676 1.515-1.509 1.515H23.703a1.512 1.512 0 01-1.508-1.515z" fill="#7ACAA6"/><path d="M57.553 18.251l-3.93 16.6a18.693 18.693 0 00-.503 4.307v15.945c0 12.082-9.886 21.967-21.967 21.967h-8.96v.829c0 .837.676 1.515 1.509 1.515h32.597c.833 0 1.508-.678 1.508-1.515v-38.58c0-.49.06-.98.177-1.456l4.348-17.64-4.78-1.972zM22.194 38.58l-6.746 5.092a1.504 1.504 0 01-2.145-.348l-6.12-8.862a1.52 1.52 0 01.086-1.84l10.4-12.4 4.524 18.359zm29.119-22.903H28.688l-.047.02c.094 4.007 5.142 7.238 11.36 7.238 6.216 0 11.264-3.231 11.358-7.239l-.046-.019z" fill="#57BE92"/><path d="M40 12.422h-.024C22.746 12.417 9.07 7.186.632 2.798a1.172 1.172 0 111.08-2.08c8.207 4.268 21.508 9.355 38.265 9.36H40c16.768 0 30.075-5.089 38.287-9.36a1.172 1.172 0 011.082 2.08c-8.445 4.39-22.13 9.624-39.369 9.624z" fill="#CBC4CC"/><path d="M57.655 20.922a1.92 1.92 0 01-1.9-1.642l-1.35-9.173a1.92 1.92 0 011.9-2.2h2.699a1.92 1.92 0 011.9 2.2l-1.35 9.173a1.92 1.92 0 01-1.9 1.642zm-35.31 0a1.92 1.92 0 001.9-1.641l1.35-9.174a1.92 1.92 0 00-1.9-2.2h-2.699a1.92 1.92 0 00-1.9 2.2l1.35 9.174a1.92 1.92 0 001.9 1.64z" fill="#A79BA7"/></g><defs><clipPath id="clip0"><path fill="#fff" d="M0 0h80v80H0z"/></clipPath></defs></svg>