<svg width="80" height="80" fill="none" xmlns="http://www.w3.org/2000/svg"><path d="M52.445 15H27.5a16.25 16.25 0 00-16.25 16.25v45h57.5l-.055-45.021A16.25 16.25 0 0052.445 15z" fill="#65DCFF"/><path d="M16.25 30v35H25V36.25 65h-2.5v6.25h35V65H55V36.25 65h8.75V30L55 23.75h-5L46.25 20h-12.5L30 23.75h-5L16.25 30z" fill="#3EA7FF"/><path d="M26.25 67.5H22.5V65H25V36.25h2.5v30a1.25 1.25 0 01-1.25 1.25zm31.25 0h-3.75a1.25 1.25 0 01-1.25-1.25v-30H55V65h2.5v2.5z" fill="#2B7CD4"/><path d="M41.25 20h-2.5v-8.75A1.25 1.25 0 0140 10a2.5 2.5 0 10-2.5-2.5c0 .331-.132.65-.366.884l-1.25 1.25-1.768-1.768.914-.914a5 5 0 116.22 5.39V20z" fill="#E6E6E6"/><path d="M37.5 28.75h5l6.25-6.25-2.5-2.5h-12.5l-2.5 2.5 6.25 6.25z" fill="#2B7CD4"/><path d="M33.75 26.25L40 22.5l6.25 3.75V20h-12.5v6.25z" fill="#BC8D5D"/><path d="M29.994 23.751l3.75-3.75 6.249 6.25-3.75 3.75-6.249-6.25zm9.999 2.501l6.25-6.25 3.749 3.75-6.25 6.25-3.749-3.75z" fill="#87C9FF"/><path d="M58.75 58.75h5v2.5h-5v-2.5zm-38.75 0h5v2.5h-5v-2.5zm20-32.5l-2.5 2.5v42.5h5v-42.5l-2.5-2.5z" fill="#2B7CD4"/><path d="M55 41.25v5l-3.75 2.5-3.75-2.5v-5H55z" fill="#87C9FF"/></svg>