<svg width="39" height="37" fill="none" xmlns="http://www.w3.org/2000/svg"><path d="M36.528 20.843v12.664c0 1.653-1.437 2.998-3.204 2.998H5.13c-1.767 0-3.204-1.345-3.204-2.998V20.844c0-.332.287-.6.641-.6.354 0 .64.268.64.6v12.663c0 .992.863 1.799 1.923 1.799h6.969V25.19c0-1.653 1.437-2.998 3.204-2.998h7.85c1.766 0 3.203 1.345 3.203 2.998v7.718c0 .331-.286.6-.64.6-.354 0-.641-.269-.641-.6V25.19c0-.992-.863-1.799-1.922-1.799h-7.85c-1.06 0-1.923.807-1.923 1.799v10.116h5.207v-9.442c0-.331.287-.6.64-.6.355 0 .642.269.642.6v9.442h13.456c1.06 0 1.923-.807 1.923-1.799V20.844c0-.332.286-.6.64-.6.354 0 .641.268.641.6zM4.168 10.128c0 .33.287.6.64.6 34.865 0 33.137.058 33.392-.125a.59.59 0 00.244-.392c.035-.241.265.351-4.212-9.314a.644.644 0 00-.587-.36H4.809a.644.644 0 00-.588.36L.056 9.89c-.074.16-.053-.093-.053 3.958.004 2.726 2.376 4.945 5.286 4.945 2.001 0 3.747-1.049 4.645-2.59 2.004 3.446 7.284 3.45 9.293.002 2.006 3.445 7.284 3.446 9.291 0 .897 1.54 2.643 2.588 4.646 2.588 2.915 0 5.286-2.219 5.286-4.946 0-.331-.286-.6-.64-.6-.354 0-.641.269-.641.6 0 2.066-1.797 3.747-4.005 3.747s-4.005-1.681-4.005-3.747c0-.331-.287-.6-.64-.6-.355 0-.642.269-.642.6 0 2.066-1.796 3.747-4.005 3.747-2.208 0-4.005-1.681-4.005-3.747 0-.331-.287-.6-.64-.6-.354 0-.641.269-.641.6 0 2.066-1.797 3.747-4.005 3.747-2.16 0-4.005-1.624-4.005-3.777 0-.331-.287-.6-.641-.6-.354 0-.64.269-.64.6 0 2.135-1.835 3.777-4.006 3.777-2.205 0-4.001-1.681-4.005-3.747v-3.594L5.23 1.735h27.995l3.61 7.793H4.809c-.354 0-.641.269-.641.6z" fill="#007FFC"/></svg>