<svg width="38" height="38" fill="none" xmlns="http://www.w3.org/2000/svg"><rect width="38" height="38" rx="5" fill="#EFEEF3"/><path d="M15.69 24.702c0 .08-.093.145-.21.145-.133.012-.226-.053-.226-.145 0-.081.093-.146.21-.146.12-.012.226.053.226.146zm-1.255-.182c-.028.08.053.174.174.198.105.04.226 0 .25-.08.024-.082-.053-.174-.174-.21-.104-.029-.221.011-.25.092zm1.783-.068c-.117.028-.198.104-.186.197.012.08.117.133.238.105.117-.028.198-.105.186-.186-.012-.076-.121-.129-.238-.116zM18.87 9C13.278 9 9 13.246 9 18.839c0 4.472 2.815 8.298 6.835 9.645.516.093.697-.226.697-.488 0-.25-.012-1.63-.012-2.476 0 0-2.822.605-3.415-1.201 0 0-.46-1.174-1.121-1.476 0 0-.924-.633.064-.621 0 0 1.004.08 1.557 1.04.883 1.556 2.363 1.109 2.94.843.092-.645.354-1.093.644-1.359-2.254-.25-4.528-.577-4.528-4.456 0-1.108.307-1.665.952-2.375-.105-.262-.448-1.342.105-2.738.842-.262 2.782 1.09 2.782 1.09a9.474 9.474 0 012.532-.344c.86 0 1.726.117 2.532.343 0 0 1.94-1.355 2.783-1.089.552 1.4.21 2.476.105 2.738.645.714 1.04 1.27 1.04 2.375 0 3.892-2.375 4.202-4.63 4.456.372.319.686.923.686 1.87 0 1.36-.012 3.041-.012 3.372 0 .262.186.58.698.488C26.266 27.137 29 23.31 29 18.839 29 13.246 24.464 9 18.871 9zm-5.952 13.907c-.052.04-.04.133.029.21.064.064.157.093.21.04.052-.04.04-.133-.029-.21-.064-.064-.157-.092-.21-.04zm-.435-.326c-.028.052.012.117.093.157.064.04.145.028.173-.028.028-.053-.012-.117-.093-.158-.08-.024-.145-.012-.173.029zm1.306 1.435c-.064.053-.04.174.053.25.092.093.21.105.262.04.052-.052.028-.173-.053-.25-.088-.092-.21-.104-.262-.04zm-.46-.593c-.064.04-.064.146 0 .238.065.093.174.133.226.093.065-.052.065-.157 0-.25-.056-.093-.16-.133-.225-.08z" fill="#0D0D0D"/></svg>