<svg width="38" height="38" fill="none" xmlns="http://www.w3.org/2000/svg"><rect width="38" height="38" rx="5" fill="#EFEEF3"/><path d="M19.008 13.874c-2.84 0-5.13 2.29-5.13 5.13 0 2.839 2.29 5.129 5.13 5.129s5.13-2.29 5.13-5.13c0-2.839-2.29-5.13-5.13-5.13zm0 8.464a3.34 3.34 0 01-3.335-3.335 3.338 3.338 0 013.335-3.335 3.338 3.338 0 013.335 3.335 3.34 3.34 0 01-3.335 3.335zm6.536-8.674c0 .665-.536 1.197-1.197 1.197a1.197 1.197 0 111.196-1.196zm3.397 1.214c-.076-1.602-.442-3.022-1.616-4.192-1.17-1.17-2.59-1.535-4.192-1.616-1.652-.093-6.603-.093-8.255 0-1.598.076-3.018.442-4.192 1.612-1.174 1.17-1.535 2.59-1.616 4.192-.093 1.652-.093 6.603 0 8.254.076 1.603.442 3.023 1.616 4.192 1.175 1.17 2.59 1.536 4.192 1.616 1.652.094 6.603.094 8.255 0 1.602-.076 3.022-.442 4.192-1.616 1.17-1.17 1.535-2.589 1.616-4.192.094-1.651.094-6.598 0-8.25zm-2.134 10.023a3.376 3.376 0 01-1.902 1.901c-1.317.523-4.442.402-5.897.402-1.456 0-4.585.116-5.897-.402a3.377 3.377 0 01-1.902-1.901c-.523-1.317-.402-4.442-.402-5.898 0-1.455-.116-4.585.402-5.897a3.376 3.376 0 011.902-1.902c1.316-.522 4.441-.402 5.897-.402 1.455 0 4.585-.116 5.897.402a3.377 3.377 0 011.902 1.902c.522 1.317.402 4.442.402 5.897 0 1.456.12 4.585-.402 5.898z" fill="#0D0D0D"/></svg>