<svg width="80" height="80" fill="none" xmlns="http://www.w3.org/2000/svg"><path d="M61.81 30.427l-2.237-1.118 7.22-14.441c.464-.93.706-1.954.707-2.993a4.374 4.374 0 00-7-3.5L56 11.75l-1.5-2L59 6.375a6.875 6.875 0 0111 5.5 9.24 9.24 0 01-.97 4.111l-7.22 14.441zM27.5 40l28.75 28.75 4.223 4.223a2.652 2.652 0 003.75-3.751C63.373 68.373 61.88 66.878 60 65L35 40h-7.5z" fill="#BED3F7"/><path d="M56.25 68.75l4.223 4.223a2.652 2.652 0 003.75-3.751C63.373 68.373 61.88 66.878 60 65l-3.75 3.75z" fill="#AEC1E8"/><path d="M52.5 40L23.75 68.75l-4.223 4.223a2.652 2.652 0 01-3.75-3.751c.85-.849 2.343-2.344 4.223-4.222l25-25h7.5z" fill="#D1E4FF"/><path d="M3.75 28.75h72.5v5H3.75v-5z" fill="#486BE0"/><path d="M15 28.75V45l7.5 10 5-3.75-3.75-7.5V40L62.5 52.5V28.75H15z" fill="#548AFF"/><path d="M49.654 12.314L55 8.75l2.5 3.75-5.233 3.489-2.613-3.675z" fill="#FFB401"/><path d="M28.75 23.75V20a8.75 8.75 0 018.75-8.75h13.75l3.75 7.5-2.5 5h-3.75v-7.5h-10L35 20v3.75h-6.25z" fill="#FFC431"/><path d="M52.5 23.75l-2.5 5H23.75l2.5-5H52.5z" fill="#D1E4FF"/><path d="M25 35a1.25 1.25 0 10-2.5 0v3.75a1.25 1.25 0 102.5 0V35z" fill="#4F7FF7"/><path d="M23.75 68.75l-4.223 4.223a2.652 2.652 0 01-3.75-3.751c.85-.849 2.343-2.344 4.223-4.222l3.75 3.75z" fill="#BED3F7"/><path d="M38.75 23.75l2.5-3.75h7.5v3.75h-10z" fill="#FFB401"/></svg>