<svg width="196" height="35" fill="none" xmlns="http://www.w3.org/2000/svg"><path d="M21.593 16.406a.574.574 0 00-.444.56m.444-.56l.057.244m-.057-.244s0 0 0 0l.057.244m-.057-.244a5.801 5.801 0 004.509-5.675 5.84 5.84 0 00-5.833-5.833c-2.744 0-5.145 1.949-5.707 4.63a.574.574 0 01-1.124 0c-.562-2.682-2.963-4.63-5.707-4.63a5.84 5.84 0 00-5.833 5.833 5.801 5.801 0 004.509 5.675l14.742.56m0 0c0 .266.184.498.444.559l.057-.244m-.501-.315l.5.315m0-.631a.324.324 0 000 .631m0-.631v.631m0 0a6.051 6.051 0 014.703 5.92 6.09 6.09 0 01-6.083 6.082 6.106 6.106 0 01-5.952-4.829m7.333-7.173l-.057.244a5.801 5.801 0 014.509 5.675 5.84 5.84 0 01-5.833 5.833c-2.744 0-5.145-1.948-5.707-4.63m-.245.051l.245-.051m-.245.051l.245-.051s0 0 0 0m-.245.051a.324.324 0 00-.634 0m.879-.051h-1.124l.245.051m0 0c-.586 2.798-3.09 4.829-5.952 4.829A6.09 6.09 0 011.648 23.2a6.051 6.051 0 014.702-5.919m7.333 7.173l-.245-.051c-.562 2.682-2.963 4.63-5.707 4.63A5.84 5.84 0 011.898 23.2a5.801 5.801 0 014.509-5.675s0 0 0 0l-.057-.244m0 0a.324.324 0 000-.631v.631zm20.9-6.55a6.989 6.989 0 00-6.98-6.981c-2.7 0-5.118 1.572-6.27 3.912-1.152-2.34-3.57-3.912-6.27-3.912a6.989 6.989 0 00-6.98 6.981 6.942 6.942 0 003.841 6.235A6.942 6.942 0 00.75 23.2a6.989 6.989 0 006.98 6.981c2.7 0 5.118-1.572 6.27-3.912 1.152 2.34 3.57 3.912 6.27 3.912a6.988 6.988 0 006.98-6.98 6.942 6.942 0 00-3.841-6.235 6.942 6.942 0 003.841-6.235z" fill="#3DB370" stroke="#3DB370" stroke-width=".5"/><path d="M47.335 9.72v7.245h8.61c.49 0 .887.152 1.19.455.327.303.49.7.49 1.19 0 .42-.163.782-.49 1.085-.303.303-.7.455-1.19.455h-8.61v9.17c0 .467-.175.863-.525 1.19a1.62 1.62 0 01-1.19.49c-.49 0-.898-.163-1.225-.49a1.62 1.62 0 01-.49-1.19V8.18c0-.467.163-.863.49-1.19a1.62 1.62 0 011.19-.49H57.52c.49 0 .887.152 1.19.455.327.303.49.7.49 1.19 0 .42-.163.793-.49 1.12a1.685 1.685 0 01-1.19.455H47.335zm24.733 2.52c.607 0 1.132.163 1.575.49.444.303.665.688.665 1.155 0 .56-.151.992-.455 1.295-.28.28-.63.42-1.05.42-.21 0-.525-.07-.945-.21-.49-.163-.875-.245-1.155-.245-.723 0-1.435.257-2.135.77-.676.49-1.236 1.178-1.68 2.065-.42.863-.63 1.832-.63 2.905v8.435c0 .467-.163.863-.49 1.19-.303.327-.7.49-1.19.49s-.886-.152-1.19-.455c-.303-.327-.455-.735-.455-1.225V14.34c0-.467.152-.863.455-1.19a1.62 1.62 0 011.19-.49c.49 0 .887.163 1.19.49.327.327.49.723.49 1.19v1.785a6.509 6.509 0 012.31-2.765c1.027-.723 2.194-1.097 3.5-1.12zm20.637 8.89c-.023.42-.198.782-.525 1.085a1.72 1.72 0 01-1.155.42h-12.32c.163 1.703.805 3.068 1.925 4.095 1.144 1.027 2.532 1.54 4.165 1.54 1.12 0 2.03-.163 2.73-.49a6.855 6.855 0 001.855-1.26c.35-.21.689-.315 1.015-.315.397 0 .724.14.98.42.28.28.42.607.42.98 0 .49-.233.933-.7 1.33-.677.677-1.575 1.248-2.695 1.715-1.12.467-2.263.7-3.43.7-1.89 0-3.558-.397-5.005-1.19a8.44 8.44 0 01-3.325-3.325c-.77-1.423-1.155-3.033-1.155-4.83 0-1.96.397-3.675 1.19-5.145.817-1.493 1.879-2.637 3.185-3.43a8.196 8.196 0 014.27-1.19c1.494 0 2.894.385 4.2 1.155 1.307.77 2.357 1.832 3.15 3.185.793 1.353 1.202 2.87 1.225 4.55zm-8.575-5.81c-1.306 0-2.438.373-3.395 1.12-.957.723-1.587 1.855-1.89 3.395H89.17v-.28c-.117-1.237-.677-2.252-1.68-3.045a5.192 5.192 0 00-3.36-1.19zm28.536 5.81c-.023.42-.198.782-.525 1.085a1.72 1.72 0 01-1.155.42h-12.32c.163 1.703.805 3.068 1.925 4.095 1.143 1.027 2.532 1.54 4.165 1.54 1.12 0 2.03-.163 2.73-.49a6.86 6.86 0 001.855-1.26c.35-.21.688-.315 1.015-.315.397 0 .723.14.98.42.28.28.42.607.42.98 0 .49-.233.933-.7 1.33-.677.677-1.575 1.248-2.695 1.715a8.84 8.84 0 01-3.43.7c-1.89 0-3.558-.397-5.005-1.19a8.439 8.439 0 01-3.325-3.325c-.77-1.423-1.155-3.033-1.155-4.83 0-1.96.397-3.675 1.19-5.145.817-1.493 1.878-2.637 3.185-3.43a8.194 8.194 0 014.27-1.19c1.493 0 2.893.385 4.2 1.155 1.307.77 2.357 1.832 3.15 3.185.793 1.353 1.202 2.87 1.225 4.55zm-8.575-5.81c-1.307 0-2.438.373-3.395 1.12-.957.723-1.587 1.855-1.89 3.395h10.325v-.28c-.117-1.237-.677-2.252-1.68-3.045a5.192 5.192 0 00-3.36-1.19zm21.571-2.975c4.107 0 6.16 2.543 6.16 7.63v9.345c0 .467-.163.863-.49 1.19-.303.327-.7.49-1.19.49a1.62 1.62 0 01-1.19-.49 1.687 1.687 0 01-.455-1.19v-9.345c0-3.033-1.283-4.55-3.85-4.55-1.377 0-2.52.443-3.43 1.33-.91.863-1.365 1.937-1.365 3.22v9.345c0 .467-.163.863-.49 1.19-.303.327-.7.49-1.19.49s-.887-.152-1.19-.455c-.303-.327-.455-.735-.455-1.225V6.78c0-.467.152-.863.455-1.19a1.62 1.62 0 011.19-.49c.49 0 .887.163 1.19.49.327.327.49.723.49 1.19v8.855c.583-.91 1.4-1.68 2.45-2.31 1.05-.653 2.17-.98 3.36-.98zm26.009.07c.49 0 .886.163 1.19.49.326.303.49.712.49 1.225v15.19c0 .467-.164.863-.49 1.19-.304.327-.7.49-1.19.49s-.887-.152-1.19-.455c-.304-.327-.455-.735-.455-1.225v-.91c-.607.817-1.435 1.517-2.485 2.1-1.05.56-2.182.84-3.395.84-1.587 0-3.034-.408-4.34-1.225-1.284-.817-2.299-1.948-3.045-3.395-.724-1.47-1.085-3.115-1.085-4.935 0-1.82.361-3.453 1.085-4.9.746-1.47 1.761-2.613 3.045-3.43a7.73 7.73 0 014.235-1.225c1.236 0 2.38.257 3.43.77 1.073.513 1.925 1.167 2.555 1.96v-.84c0-.49.151-.898.455-1.225.303-.327.7-.49 1.19-.49zm-7.14 15.855c1.096 0 2.065-.28 2.905-.84.863-.56 1.528-1.33 1.995-2.31.49-.98.735-2.088.735-3.325 0-1.213-.245-2.31-.735-3.29-.467-.98-1.132-1.75-1.995-2.31-.84-.583-1.809-.875-2.905-.875-1.097 0-2.077.28-2.94.84-.84.56-1.505 1.33-1.995 2.31-.467.98-.7 2.088-.7 3.325s.233 2.345.7 3.325c.49.98 1.155 1.75 1.995 2.31.863.56 1.843.84 2.94.84zm23.109-16.03c4.2 0 6.3 2.52 6.3 7.56v9.52c0 .467-.164.863-.49 1.19-.304.327-.7.49-1.19.49-.467 0-.864-.163-1.19-.49a1.682 1.682 0 01-.455-1.19v-9.485c0-1.377-.315-2.473-.945-3.29-.63-.817-1.657-1.225-3.08-1.225-.934 0-1.785.21-2.555.63a4.658 4.658 0 00-1.785 1.645 4.164 4.164 0 00-.63 2.24v9.485c0 .467-.164.863-.49 1.19-.304.327-.7.49-1.19.49s-.887-.152-1.19-.455c-.304-.327-.455-.735-.455-1.225V14.34c0-.467.151-.863.455-1.19.326-.327.723-.49 1.19-.49.49 0 .886.163 1.19.49.326.327.49.723.49 1.19v1.225c.606-.933 1.446-1.715 2.52-2.345a6.725 6.725 0 013.5-.98zm26.14-7.14c.49 0 .887.163 1.19.49.327.303.49.7.49 1.19v22.54c0 .467-.163.863-.49 1.19-.303.327-.7.49-1.19.49s-.887-.152-1.19-.455c-.303-.327-.455-.735-.455-1.225v-.98c-.583.84-1.412 1.552-2.485 2.135a6.88 6.88 0 01-3.395.875c-1.587 0-3.022-.408-4.305-1.225-1.283-.817-2.298-1.948-3.045-3.395-.747-1.47-1.12-3.115-1.12-4.935 0-1.82.362-3.453 1.085-4.9.747-1.47 1.762-2.613 3.045-3.43a7.73 7.73 0 014.235-1.225c1.237 0 2.38.257 3.43.77 1.05.513 1.902 1.178 2.555 1.995V6.78c0-.49.152-.887.455-1.19.303-.327.7-.49 1.19-.49zm-7.14 23.17c1.097 0 2.065-.28 2.905-.84.863-.56 1.528-1.33 1.995-2.31.49-.98.735-2.088.735-3.325 0-1.213-.245-2.31-.735-3.29-.467-1.003-1.132-1.785-1.995-2.345-.84-.56-1.808-.84-2.905-.84-1.097 0-2.077.28-2.94.84-.84.56-1.505 1.342-1.995 2.345-.467.98-.7 2.077-.7 3.29 0 1.237.233 2.345.7 3.325.49.98 1.155 1.75 1.995 2.31.863.56 1.843.84 2.94.84z" fill="#F2F2F2"/></svg>