<svg width="50" height="50" fill="none" xmlns="http://www.w3.org/2000/svg"><path d="M8.962 20.437a2.026 2.026 0 00-.744-.803 3.485 3.485 0 00-1.184-.434 9.656 9.656 0 00-1.608-.127l-2.843.002a.713.713 0 00-.655.52L.015 27.929c-.07.281.116.517.411.517h1.362a.698.698 0 00.654-.517l.467-2.024a.698.698 0 01.653-.517h.39c1.665-.002 2.954-.342 3.88-1.023.932-.683 1.391-1.584 1.391-2.701 0-.49-.081-.9-.261-1.227zM6.025 23.16c-.412.301-.984.452-1.722.452h-.334c-.296 0-.478-.234-.413-.52l.41-1.77c.057-.283.355-.518.648-.516l.446-.003c.521 0 .919.09 1.185.265.263.172.394.447.393.811.007.553-.204.979-.613 1.28zm41.759-3.434l-.085.026-.114.015-.14-.021-.071-.07-.033-.109-.002-.164v-.606h.455v-.187h-.455v-.378h-.225v.378h-.153v.187h.153v.706l.105.349.31.11.13-.01.137-.027v-.2h-.012zm2.112-1.02l-.325-.134-.24.049-.245.164-.141-.157-.23-.055-.222.049-.209.135v-.147h-.221v1.324h.22v-.989l.185-.115.185-.046.15.027.075.077.033.127.01.163v.757h.222v-.847l-.004-.07-.004-.065.189-.12.186-.047.146.027.08.077.027.127.015.162v.757H50v-.86l-.104-.37zm-34.367 2.922c-.514-.29-1.325-.434-2.434-.434-.549 0-1.095.042-1.648.128-.407.062-.447.074-.698.129-.518.113-.599.63-.599.63l-.167.685c-.094.437.158.42.263.384.226-.068.352-.137.815-.24.441-.1.906-.176 1.275-.171.545 0 .961.058 1.239.174.274.12.41.324.41.62l-.023.192-.197.12c-.772.05-1.33.12-2.008.22-.663.091-1.244.253-1.727.474-.519.228-.904.535-1.172.925-.26.392-.39.867-.39 1.424 0 .525.188.958.554 1.293.368.33.854.49 1.435.49a3.91 3.91 0 00.855-.079l.66-.227.559-.31.513-.339.007.01-.051.218-.003.01v.001c-.056.266.105.484.364.51l.005.006h1.264l.018-.008a.704.704 0 00.586-.51l.993-4.297.052-.35.024-.329c.004-.609-.26-1.06-.774-1.349zm-2.196 4.832l-.212.28-.536.277a1.908 1.908 0 01-.712.154c-.335 0-.598-.049-.776-.148l-.263-.51c0-.278.064-.497.2-.666l.577-.392c.247-.084.549-.154.898-.203.311-.038.926-.109 1.006-.11l.095.165c-.02.094-.194.824-.277 1.154zm26.932-4.826c-.517-.29-1.328-.435-2.434-.435-.548 0-1.096.042-1.646.13-.409.06-.45.073-.701.127-.517.112-.597.63-.597.63l-.167.685c-.093.437.153.417.268.384.227-.068.349-.134.807-.241.44-.1.909-.173 1.279-.171.542 0 .959.059 1.236.176.275.119.41.325.41.617l-.02.192-.195.124c-.78.046-1.34.118-2.01.216-.661.092-1.244.253-1.728.475-.517.23-.907.536-1.173.927-.263.392-.39.866-.39 1.418 0 .529.186.962.557 1.295.37.329.85.493 1.432.493.366-.003.65-.027.854-.08l.658-.224.563-.31.51-.343.009.011-.047.22-.005.004.002.004c-.061.266.1.486.362.51l.002.005h1.264l.02-.007a.697.697 0 00.58-.514l.996-4.292.053-.352.028-.329c.001-.607-.259-1.056-.777-1.345zm-2.191 4.832l-.222.283-.53.275a1.93 1.93 0 01-.71.154c-.346 0-.602-.05-.774-.15l-.266-.508c0-.278.064-.495.194-.666.132-.162.334-.295.584-.392.244-.084.545-.151.896-.202.31-.038.923-.11 1.002-.112l.096.166c-.014.094-.19.821-.27 1.152zm-4.381-5.998a2.107 2.107 0 00-.75-.806 3.342 3.342 0 00-1.183-.434 9.357 9.357 0 00-1.602-.125l-2.848.002a.707.707 0 00-.65.517l-1.915 8.338c-.069.283.121.517.411.517l1.364-.002c.29.002.586-.23.655-.516l.46-2.024a.706.706 0 01.655-.517h.39c1.668 0 2.96-.343 3.89-1.023.92-.687 1.385-1.587 1.385-2.704-.005-.487-.09-.899-.262-1.223zm-2.937 2.726c-.41.296-.984.447-1.718.447H28.7a.408.408 0 01-.416-.52l.412-1.766a.692.692 0 01.65-.516l.442-.003c.524.003.917.089 1.185.263.266.175.392.449.395.812.003.553-.202.98-.61 1.283zm14.614-3.505c.063-.285-.115-.516-.408-.512h-1.22c-.25 0-.475.186-.585.414l-.067.105-.062.27-1.705 7.75-.056.238.002.006c-.056.255.1.448.343.484l.02.03H42.9c.248 0 .481-.19.587-.421l.066-.1 1.823-8.263-.004-.001zm-20.587 1.609c-.322.004-1.632 0-1.632 0-.294 0-.67.237-.857.52 0 0-1.95 3.346-2.14 3.682l-.226-.003-.607-3.657c-.067-.287-.368-.533-.742-.533l-1.22.002c-.294 0-.474.234-.408.52 0 0 .927 5.271 1.112 6.512.087.685-.01.807-.01.807l-1.207 2.1c-.178.286-.082.52.21.52l1.411-.003c.294 0 .68-.23.854-.518l5.426-9.177c0 .002.521-.783.036-.772z" opacity=".5" fill="#000"/></svg>