<svg width="28" height="27" fill="none" xmlns="http://www.w3.org/2000/svg"><g clip-path="url(#clip0)"><path d="M25.19 0H2.79A1.888 1.888 0 00.902 1.888v22.399c0 1.043.845 1.888 1.888 1.888h22.4a1.888 1.888 0 001.887-1.888v-22.4A1.888 1.888 0 0025.189 0zm-5.225 10.204c.006.129.009.258.009.388 0 3.97-3.022 8.547-8.547 8.547a8.503 8.503 0 01-4.604-1.35 6.027 6.027 0 004.447-1.244 3.007 3.007 0 01-2.806-2.086 2.994 2.994 0 001.356-.051 3.005 3.005 0 01-2.41-2.945v-.038c.406.225.869.36 1.361.375a3.001 3.001 0 01-.93-4.01 8.528 8.528 0 006.192 3.139 3.005 3.005 0 015.119-2.74 6.025 6.025 0 001.907-.729c-.224.701-.7 1.29-1.32 1.662a5.991 5.991 0 001.724-.474 6.104 6.104 0 01-1.498 1.556z" fill="#262626"/></g><defs><clipPath id="clip0"><path fill="#fff" transform="translate(.902)" d="M0 0h26.175v26.175H0z"/></clipPath></defs></svg>