<svg width="38" height="38" fill="none" xmlns="http://www.w3.org/2000/svg"><rect width="38" height="38" rx="5" fill="#EFEEF3"/><path d="M26.944 15.048c.013.178.013.356.013.533 0 5.419-4.125 11.663-11.663 11.663-2.322 0-4.48-.673-6.294-1.84.33.038.647.05.99.05a8.21 8.21 0 005.089-1.751 4.106 4.106 0 01-3.833-2.843c.254.038.508.064.774.064a4.33 4.33 0 001.079-.14 4.1 4.1 0 01-3.287-4.023v-.05c.546.304 1.18.495 1.853.52a4.096 4.096 0 01-1.827-3.414c0-.761.203-1.46.558-2.068a11.65 11.65 0 008.452 4.289 4.621 4.621 0 01-.102-.939 4.097 4.097 0 014.1-4.099 4.09 4.09 0 012.994 1.294 8.07 8.07 0 002.602-.99 4.087 4.087 0 01-1.802 2.26 8.215 8.215 0 002.36-.635 8.81 8.81 0 01-2.056 2.12z" fill="#0D0D0D"/></svg>