<svg width="50" height="50" fill="none" xmlns="http://www.w3.org/2000/svg"><path d="M20.438 17.177l-2.51 15.615h4.011l2.508-15.615h-4.01zm12.098 6.36c-1.402-.692-2.26-1.159-2.26-1.867.016-.643.726-1.303 2.31-1.303a6.98 6.98 0 012.988.578l.364.163.545-3.267a10.125 10.125 0 00-3.6-.644c-3.961 0-6.75 2.06-6.767 5.005-.033 2.173 1.996 3.38 3.515 4.103 1.552.742 2.08 1.223 2.08 1.883-.017 1.012-1.255 1.48-2.41 1.48-1.6 0-2.459-.241-3.763-.805l-.529-.241-.56 3.395c.942.42 2.675.788 4.473.807 4.21 0 6.949-2.028 6.983-5.167.014-1.722-1.056-3.041-3.369-4.12zm14.23-6.312h-3.103c-.957 0-1.683.275-2.097 1.256l-5.958 14.311h4.21l1.158-3.098h4.71l.601 3.11H50l-3.234-15.579zm-4.622 9.342c.081.008 1.616-5.058 1.616-5.058l1.221 5.058h-2.837zm-27.567-9.39l-3.93 10.61-.428-2.093c-.727-2.414-3.005-5.038-5.547-6.34L8.27 32.776h4.244l6.306-15.599h-4.243v-.001z" fill="#2E2E2E"/><path d="M8.897 19.191c-.306-1.19-1.283-1.994-2.61-2.01H.065L0 17.468c4.855 1.197 8.93 4.88 10.252 8.344L8.897 19.19z" fill="#888680"/></svg>