<svg width="50" height="50" fill="none" xmlns="http://www.w3.org/2000/svg"><path d="M4.286 20.595h1.746l-.873-2.222-.873 2.222zm21.666-1.905c-.158-.079-.397-.079-.635-.079H23.73v1.27h1.587c.238 0 .477 0 .635-.08.16-.079.238-.317.238-.555.08-.317-.079-.476-.238-.556z" fill="#2E2E2E"/><path d="M42.937 16.31v.952l-.477-.952h-3.73v.952l-.476-.952h-5.08c-.872 0-1.587.158-2.222.476v-.476h-3.571v.476c-.397-.318-.873-.476-1.508-.476H13.095l-.873 1.984-.873-1.984H7.302v.952l-.477-.952H3.413l-1.588 3.73L0 24.167h4.048l.476-1.27h1.11l.477 1.27h4.603v-.953l.397.953h2.302l.396-.953v.953h11.032v-2.064H25c.159 0 .159 0 .159.238v1.746h5.714v-.476c.476.238 1.19.476 2.143.476h2.38l.477-1.27h1.111l.476 1.27h4.603v-1.19l.715 1.19h3.73V16.31h-3.572zM16.11 22.976h-1.35v-4.365l-1.904 4.365h-1.19l-1.905-4.365v4.365H7.063l-.555-1.19H3.81l-.477 1.27H1.825l2.381-5.635H6.19l2.223 5.317v-5.317h2.143l1.746 3.81 1.587-3.81h2.222v5.555zm5.397-4.365h-3.095v1.032h3.016v1.111h-3.016v1.111h3.095v1.19h-4.444v-5.634h4.444v1.19zm5.952 2.302c.159.317.238.555.238 1.032v1.11H26.35v-.714c0-.317 0-.793-.238-1.11-.238-.239-.476-.239-.952-.239h-1.43v2.064h-1.349V17.42h3.016c.714 0 1.19 0 1.587.238s.635.635.635 1.27c0 .873-.555 1.349-.952 1.508.396.079.635.317.793.476zm2.381 2.063h-1.349v-5.635h1.35v5.635zm15.635 0H43.57l-2.54-4.206v4.206h-2.698l-.476-1.19H35.08l-.476 1.27h-1.508c-.635 0-1.428-.16-1.904-.635-.477-.476-.715-1.111-.715-2.143 0-.794.159-1.587.715-2.222.396-.477 1.11-.635 1.984-.635h1.27v1.19h-1.27c-.477 0-.715.08-1.032.318-.238.238-.397.714-.397 1.27 0 .634.08 1.031.397 1.349.238.238.555.317.952.317h.556l1.825-4.365h1.984l2.222 5.317V17.5h1.985l2.301 3.889V17.5h1.35v5.476h.158z" fill="#2E2E2E"/><path d="M35.556 20.595h1.825l-.873-2.222-.953 2.222zM22.064 32.024V27.5L20 29.722l2.064 2.302zm-8.493-3.969v1.032h2.937v1.111H13.57v1.19h3.254l1.508-1.666-1.428-1.667H13.57zm11.509 0h-1.667v1.429h1.746c.476 0 .793-.238.793-.714-.079-.476-.396-.715-.873-.715z" fill="#2E2E2E"/><path d="M49.603 29.405v-3.572H46.27c-.715 0-1.27.159-1.667.476v-.476h-3.65c-.556 0-1.27.159-1.588.476v-.476h-6.428v.476c-.477-.396-1.35-.476-1.746-.476h-4.286v.476c-.397-.396-1.35-.476-1.826-.476h-4.762l-1.11 1.19-1.032-1.19h-7.143v7.778h6.984l1.111-1.19 1.032 1.19h4.285v-1.825H25c.555 0 1.27 0 1.825-.239v2.143h3.572v-2.063h.159c.238 0 .238 0 .238.238v1.825h10.793c.715 0 1.429-.158 1.826-.476v.476h3.412c.715 0 1.429-.079 1.905-.396.794-.477 1.27-1.35 1.27-2.381a3.04 3.04 0 00-.397-1.508zM25 30.675h-1.587v1.904h-2.54l-1.587-1.825-1.667 1.825h-5.238v-5.635h5.317l1.588 1.826 1.666-1.826h4.207c1.032 0 2.222.318 2.222 1.826-.08 1.587-1.19 1.904-2.381 1.904zm7.937-.318c.158.238.238.556.238 1.032v1.11h-1.35v-.713c0-.318 0-.873-.238-1.112-.158-.238-.476-.238-.952-.238h-1.429V32.5h-1.349v-5.635h3.016c.635 0 1.19 0 1.587.238s.715.635.715 1.27c0 .873-.556 1.35-.953 1.508.397.159.635.317.715.476zm5.476-2.302h-3.095v1.032h3.015v1.111h-3.015v1.111h3.095v1.19h-4.445v-5.634h4.445v1.19zm3.333 4.445h-2.54v-1.19h2.54c.238 0 .397 0 .556-.16a.607.607 0 00.158-.396.606.606 0 00-.158-.397c-.08-.08-.239-.159-.477-.159-1.27-.079-2.777 0-2.777-1.746 0-.793.476-1.666 1.904-1.666h2.62v1.349h-2.46c-.239 0-.398 0-.556.08-.16.079-.16.237-.16.396 0 .238.16.317.318.397.159.08.318.08.477.08h.714c.714 0 1.19.158 1.508.475.238.239.397.635.397 1.19 0 1.191-.715 1.747-2.064 1.747zm6.825-.556c-.317.318-.873.556-1.666.556h-2.54v-1.19h2.54c.238 0 .397 0 .555-.16a.606.606 0 00.159-.396.606.606 0 00-.159-.397c-.08-.08-.238-.159-.476-.159-1.27-.079-2.778 0-2.778-1.746 0-.793.476-1.666 1.905-1.666h2.62v1.349h-2.382c-.238 0-.397 0-.555.08-.16.079-.16.237-.16.396 0 .238.08.317.318.397.16.08.318.08.477.08h.714c.714 0 1.19.158 1.508.475.08 0 .08.08.08.08.237.317.317.714.317 1.11 0 .477-.16.874-.477 1.191z" fill="#2E2E2E"/><path d="M31.508 28.214c-.159-.08-.397-.08-.635-.08h-1.588v1.27h1.588c.238 0 .476 0 .635-.079.159-.08.238-.317.238-.555.08-.318-.08-.476-.238-.556zm-5.556-9.524c-.158-.079-.397-.079-.635-.079H23.73v1.27h1.587c.238 0 .477 0 .635-.08.16-.079.238-.317.238-.555.08-.317-.079-.476-.238-.556zm9.604 1.905h1.825l-.873-2.222-.953 2.222zM22.064 32.024V27.5L20 29.722l2.064 2.302zm3.016-3.969h-1.667v1.429h1.746c.476 0 .793-.238.793-.714-.079-.476-.396-.715-.873-.715z" fill="#2E2E2E"/><path d="M31.508 28.214c-.159-.08-.397-.08-.635-.08h-1.588v1.27h1.588c.238 0 .476 0 .635-.079.159-.08.238-.317.238-.555.08-.318-.08-.476-.238-.556zm-6.984 4.127l-1.111-1.19v1.35h-2.62l-1.587-1.826L17.46 32.5h-5.238v-5.555h5.318l1.666 1.825.794-.952-1.984-1.985h-6.984v7.778h6.984l1.19-1.19 1.032 1.19h4.286v-1.27zm-8.254-8.254l-1.032-1.11h-.476V22.5l-1.19-1.19-.794 1.666h-1.111l-1.905-4.365v4.365H7.063l-.555-1.19H3.81l-.556 1.19H1.825l2.381-5.555H6.19l2.223 5.317v-5.317h1.19l-1.11-1.111H7.301v.952l-.397-.952H3.413l-1.588 3.73L0 24.087h4.127l.476-1.19h1.111l.556 1.19h4.444v-.952l.397.952h2.302l.396-.952v.952h2.46z" fill="#2E2E2E"/><path d="M12.62 20.437l-1.27-1.27.952 2.063.317-.793zm36.11 12.777A2.903 2.903 0 0050 31.071l-1.111-1.11c.08.237.159.476.159.793 0 .476-.16.873-.477 1.19-.317.318-.873.556-1.666.556h-2.54v-1.19h2.54c.238 0 .397 0 .555-.16a.606.606 0 00.16-.396.606.606 0 00-.16-.397c-.079-.08-.238-.159-.476-.159-1.27-.079-2.778 0-2.778-1.746 0-.793.477-1.508 1.667-1.666L45 25.913c-.159.079-.238.158-.317.158v-.476h-3.651c-.556 0-1.27.159-1.587.476v-.476h-6.508v.476c-.477-.396-1.35-.476-1.746-.476h-4.286v.476c-.397-.396-1.35-.476-1.826-.476h-4.762l-1.11 1.19-1.032-1.19h-.873l2.38 2.381 1.191-1.27h4.206c1.032 0 2.223.318 2.223 1.826 0 1.587-1.111 1.904-2.302 1.904h-1.587v1.191l1.19 1.19v-1.19H25c.556 0 1.27 0 1.825-.238v2.143h3.572v-2.064h.159c.238 0 .238 0 .238.238v1.826h10.793c.715 0 1.429-.159 1.826-.476v.476h3.412c.635.08 1.35 0 1.905-.318zm-15.793-2.857c.158.238.238.556.238 1.032V32.5h-1.35v-.714c0-.318 0-.873-.238-1.111-.158-.239-.476-.239-.952-.239h-1.429V32.5h-1.349v-5.635h3.016c.635 0 1.19 0 1.587.238s.715.635.715 1.27c0 .873-.556 1.35-.953 1.508.397.159.635.317.715.476zm5.476-2.302h-3.095v1.032h3.015v1.111h-3.015v1.111h3.095V32.5h-4.445v-5.635h4.445v1.19zm3.333 4.445h-2.54v-1.19h2.54c.238 0 .397 0 .556-.16a.606.606 0 00.158-.396.606.606 0 00-.158-.397c-.08-.08-.239-.159-.477-.159-1.27-.079-2.777 0-2.777-1.746 0-.793.476-1.666 1.904-1.666h2.62v1.349h-2.46c-.239 0-.398 0-.556.08-.16.079-.16.237-.16.396 0 .238.16.317.318.397.16.08.318.08.477.08h.714c.714 0 1.19.158 1.508.476.238.238.397.634.397 1.19 0 1.19-.715 1.746-2.064 1.746z" fill="#2E2E2E"/><path d="M45.556 28.611c0 .238.079.318.317.397.159.08.318.08.476.08h.715c.476 0 .793.079 1.11.238l-1.19-1.191h-.714c-.238 0-.397 0-.556.08a.606.606 0 00-.158.396zm-2.778-4.761l.159.237h.079l-.238-.238zm-4.365-4.366l1.349 3.254v-1.904l-1.35-1.35z" fill="#2E2E2E"/><path d="M24.841 22.103H25c.159 0 .159 0 .159.238v1.746h5.714v-.476c.476.238 1.19.476 2.143.476h2.38l.477-1.27h1.111l.476 1.27h4.603v-.793l-1.11-1.111v.873h-2.699l-.397-1.27H35.08l-.476 1.27h-1.508c-.635 0-1.428-.16-1.904-.635-.477-.476-.715-1.111-.715-2.143 0-.794.159-1.587.715-2.222.396-.477 1.11-.635 1.984-.635h1.27v1.19h-1.27c-.477 0-.715.08-1.032.318-.238.238-.397.714-.397 1.27 0 .634.08 1.031.397 1.349.238.238.555.317.952.317h.556l1.825-4.365h.794l-1.111-1.111h-2.064c-.873 0-1.587.159-2.222.476v-.476h-3.492v.476c-.397-.317-.873-.476-1.508-.476H13.095l-.873 1.984-.873-1.984H7.857L8.968 17.5h1.588l1.349 2.936.476.477 1.429-3.492h2.222v5.635h-1.35V18.69l-1.349 3.175 2.302 2.302h9.127l.08-2.064zm3.651-4.682h1.35v5.635h-1.35V17.42zm-6.984 1.19h-3.095v1.032h3.016v1.111h-3.016v1.111h3.095v1.19h-4.444v-5.634h4.444v1.19zm2.222 4.365h-1.349v-5.635h3.016c.714 0 1.19 0 1.587.238s.635.635.635 1.27c0 .873-.555 1.35-.952 1.508.317.08.555.318.635.476.158.318.238.556.238 1.032v1.111h-1.35v-.714c0-.317 0-.794-.238-1.111-.079-.159-.317-.159-.793-.159H23.73v1.984z" fill="#2E2E2E"/></svg>