<svg width="27" height="27" fill="none" xmlns="http://www.w3.org/2000/svg"><g clip-path="url(#clip0)"><path d="M25.56.017H2.378A1.44 1.44 0 00.939 1.456v23.182c0 .795.645 1.44 1.439 1.44h12.48V15.984h-3.396v-3.933h3.396v-2.9c0-3.366 2.055-5.2 5.058-5.2 1.44 0 2.674.108 3.034.155v3.517l-2.083.001c-1.632 0-1.947.777-1.947 1.915v2.51h3.895l-.51 3.934H18.92v10.092h6.64A1.44 1.44 0 0027 24.638V1.455c0-.794-.644-1.438-1.44-1.438z" fill="#262626"/></g><defs><clipPath id="clip0"><path fill="#fff" transform="translate(.94 .016)" d="M0 0h26.061v26.06H0z"/></clipPath></defs></svg>