<svg width="80" height="80" fill="none" xmlns="http://www.w3.org/2000/svg"><path d="M9.932 30.671l3.345 14.051h38.446l3.345-14.05H9.932z" fill="#8C6231"/><path d="M7.5 26.25l-2.69-6.279a5.258 5.258 0 01.323-4.776l.063-.105a5.259 5.259 0 019.39.752L18.75 26.25H7.5z" fill="#3EA7FF"/><path d="M27.5 20l2.347-4.693a20.375 20.375 0 017.74-8.36A4.895 4.895 0 0145 11.144v.108c0 .819-.206 1.625-.598 2.344L37.5 26.25h-10V20z" fill="#FC7"/><path d="M8.824 17.935l2.34-.878 4.464 11.906-2.34.877-4.464-11.905z" fill="#2B7CD4"/><path d="M18.75 26.25l-4.163-10.408a5.258 5.258 0 00-1.695-2.229 5.26 5.26 0 01-1.835-2.511l-.038-.113c-1.428-4.305 3.286-8.086 7.157-5.722l.085.052a18.62 18.62 0 017.666 9.527L30 26.25H18.75z" fill="#65DCFF"/><path d="M23.8 30.349l-2.234-7.687A29.542 29.542 0 0016.5 12l2-1.5a32.028 32.028 0 015.473 11.487l2.227 7.664-2.4.698z" fill="#57C1FF"/><path d="M33.75 26.25l1.34-2.68A30.599 30.599 0 0150.032 9.29a4.193 4.193 0 015.596 5.39l-.179.446a4.194 4.194 0 01-1.427 1.834L41.25 26.25h-7.5z" fill="#F2E368"/><path d="M38.75 26.25l.164-.197a26.932 26.932 0 0115.408-9.167l.3-.06a4.657 4.657 0 014.639 1.772 4.42 4.42 0 01-.001 5.306l-.434.579a4.42 4.42 0 01-3.536 1.767H38.75z" fill="#A0CC00"/><path d="M39.883 27.075l13.369-5.732.985 2.298-13.369 5.732-.985-2.298z" fill="#85B200"/><path d="M8.716 30.96l3.345 14.052L8.716 30.96zm-1.202.292l2.433-.58 3.35 14.054-2.432.58-3.35-14.054zm45.425 13.76l3.345-14.052-3.345 14.052zm-1.189-.282l3.351-14.054 2.433.58-3.351 14.054-2.433-.58zm-37.367-.102l-2.816-14.485 2.716.868 2.554 13.14-2.454.477zm4.774-.365l-2.009-14.458 2.701 1.273 1.784 12.841-2.476.344zm4.834-.068l-1.2-14.39 2.621 1.341 1.07 12.841-2.49.208zm4.839-.069l-.398-14.321 2.54 1.41.356 12.841-2.499.07zm7.354-.495l-2.499-.07.343-12.346 2.54-1.41-.384 13.826zm4.825.564l-2.491-.208 1.07-12.84 2.653-1.737-1.232 14.785zm4.771.519l-2.476-.343 1.847-13.293 2.7-1.273-2.07 14.91zm4.895-.384l-2.454-.477 2.496-12.842 2.782-1.206-2.825 14.525z" fill="#A1764A"/><path d="M58.75 26.25H6.25a2.5 2.5 0 000 5h52.5a2.5 2.5 0 000-5zM54.822 42.5l-3.114 13.08a2.502 2.502 0 01-2.433 1.92h-33.55a2.502 2.502 0 01-2.433-1.92L10.178 42.5h44.644z" fill="#BC8D5D"/><path d="M16.25 46.25H20v2.5h-3.75v-2.5zm6.25 0h5v2.5h-5v-2.5zm7.5 0h5v2.5h-5v-2.5zm7.5 0h5v2.5h-5v-2.5zm7.5 0h3.75v2.5H45v-2.5zm-26.25 5h5v2.5h-5v-2.5zm7.5 0h5v2.5h-5v-2.5zm7.5 0h5v2.5h-5v-2.5zm7.5 0h5v2.5h-5v-2.5z" fill="#A1764A"/><path d="M21.875 70H48.75l3.248-.295-.054 6.545H21.875a3.125 3.125 0 110-6.25z" fill="#FC7"/><path d="M21.875 63.75H48.75l3.666-.667-.418 6.622L48.75 70H21.875a3.125 3.125 0 110-6.25z" fill="#F2E368"/><path d="M21.875 57.5H48.75l4.265-1.163-.599 6.746-3.666.667H21.875a3.125 3.125 0 110-6.25z" fill="#A0CC00"/><path d="M72.257 76.25H51.86a3.11 3.11 0 01-3.11-3.11v-.3a3.11 3.11 0 012.828-3.097l20.318-1.847a3.993 3.993 0 014.354 3.976v.385a3.993 3.993 0 01-3.993 3.993z" fill="#FCB73F"/><path d="M72.619 67.83l-20.477 1.862a3.11 3.11 0 01-3.392-3.097v-.25a3.11 3.11 0 012.554-3.06l20.24-3.68a3.993 3.993 0 014.706 3.93v.319a3.992 3.992 0 01-3.631 3.976z" fill="#EACF4D"/><path d="M72.972 59.346l-20.556 3.737a3.11 3.11 0 01-3.666-3.06v-.148a3.11 3.11 0 012.292-3l20.165-5.5a3.993 3.993 0 015.043 3.852v.19a3.993 3.993 0 01-3.278 3.93z" fill="#85B200"/><path d="M71.207 51.375l-22.457 3-24.115.566c-1.726 0-5.885-.566-5.885-.566a4.33 4.33 0 012.966-4.11l22.034-7.31h28.496c2.211 0 .254 4.545.254 4.545l-1.293 3.875z" fill="#A0EAFF"/><path d="M21.875 51.25H48.75l3.194-1.162 1.071 6.249L48.75 57.5H21.875a3.125 3.125 0 010-6.25z" fill="#65DCFF"/><path d="M73.308 50.802l-20.63 5.627a3.11 3.11 0 01-1.88-5.923l20.095-7.308a3.992 3.992 0 015.357 3.752 3.992 3.992 0 01-2.942 3.852z" fill="#57C1FF"/><path d="M48.75 43.75l2.5 3.75 16.875-3.295L62.5 37.5a10.276 10.276 0 01-8.056 5.617l-5.694.633zm-1.792-1.792l1.792 1.792-6.25 2.5L41.25 45 45 40l2.476-1.238a1.995 1.995 0 00-.518 3.196z" fill="#65DCFF"/><path d="M62.5 37.5H50l-2.524 1.262a1.994 1.994 0 00-.519 3.195l1.793 1.793 5.694-.633A10.274 10.274 0 0062.5 37.5z" fill="#57C1FF"/></svg>