<svg width="27" height="27" fill="none" xmlns="http://www.w3.org/2000/svg"><path d="M23.807 0H2.367A2.368 2.368 0 000 2.368v21.439a2.368 2.368 0 002.368 2.368h21.439a2.368 2.368 0 002.368-2.368V2.367A2.368 2.368 0 0023.807 0zM8.1 22.601a.69.69 0 01-.69.689H4.478a.689.689 0 01-.689-.689V10.306c0-.38.309-.69.69-.69H7.41c.38 0 .689.31.689.69V22.6zM5.944 8.458a2.786 2.786 0 110-5.573 2.786 2.786 0 010 5.573zm17.484 14.199c0 .35-.284.633-.634.633h-3.147a.634.634 0 01-.634-.633v-5.768c0-.86.253-3.77-2.248-3.77-1.94 0-2.333 1.992-2.412 2.886v6.652c0 .35-.284.633-.634.633h-3.044a.634.634 0 01-.633-.633V10.25c0-.35.283-.633.633-.633h3.044c.35 0 .634.283.634.633v1.073c.719-1.08 1.788-1.913 4.064-1.913 5.04 0 5.01 4.709 5.01 7.296v5.95z" fill="#262626"/></svg>