<svg width="50" height="50" fill="none" xmlns="http://www.w3.org/2000/svg"><path d="M50 25c0-8.145-6.613-14.839-14.839-14.839-3.548 0-6.774 1.21-9.355 3.307 1.936 1.854 3.468 4.193 4.194 6.855h-1.21c-.806-2.34-2.096-4.436-3.87-6.13-1.775 1.694-3.065 3.79-3.872 6.13h-1.21a15.82 15.82 0 014.194-6.855c-2.58-2.097-5.726-3.307-9.274-3.307C6.613 10.161 0 16.855 0 25s6.613 14.839 14.839 14.839c3.548 0 6.774-1.29 9.274-3.307a15.81 15.81 0 01-4.194-6.855h1.21c.806 2.34 2.097 4.436 3.871 6.13 1.774-1.694 3.145-3.79 3.871-6.13h1.21a15.81 15.81 0 01-4.194 6.855c2.58 2.097 5.806 3.307 9.355 3.307C43.387 39.839 50 33.145 50 25z" fill="#2E2E2E"/><path d="M39.113 28.468l1.048-5.484h1.29l.162.564c.242-.241.645-.564 1.451-.564l-.403 1.451c-.403 0-1.048-.08-1.532 1.533l-.484 2.5h-1.532zm-19.758-6.855h1.451l-.322 1.451h.806l-.242 1.13h-.725l-.404 2.177c-.08.403 0 .806.807.645l-.162 1.21c-.322.242-.725.242-1.128.242-.323 0-1.452-.242-1.21-1.694l1.129-5.161zm6.451 4.435c.162-.887.565-3.064-2.016-3.064-2.42 0-2.742 2.42-2.742 2.742-.08.322-.08 2.742 2.5 2.742.645 0 1.533-.08 1.936-.242l.242-1.13c-.242.081-1.049.162-1.694.162-.564 0-1.532 0-1.37-1.21h3.144zm-7.903-1.774l.323-1.129c-.726-.242-1.29-.242-1.452-.242-.242 0-2.016 0-2.258 1.29-.242 1.049.161 1.452.484 1.613.565.242.887.484 1.21.646.403.16.322.806-.162.806-.241 0-1.21.08-1.935-.161l-.242 1.129c.726.161 1.21.161 1.774.161.403 0 2.178.08 2.42-1.532.16-.807-.242-1.13-.484-1.371-.323-.161-.726-.484-1.049-.565-.322-.161-.564-.645 0-.806.242.08.968.08 1.371.161zm-9.677 4.194l1.29-6.613h-2.5l-1.774 4.032-.323-4.032H2.581l-1.29 6.613h1.45l.969-4.758.403 4.758h1.37l2.098-4.678-.887 4.678h1.532zm1.694-5.323l-.243 1.21c.404 0 1.371-.161 1.855-.161s1.13-.081.887.725c-.403 0-3.064-.403-3.467 1.936-.162 1.129.806 1.693 1.532 1.693s.967-.16 1.21-.322l.16.322h1.372l.564-2.983c.162-.726.404-2.5-2.096-2.5-.323-.081-.807-.081-1.775.08zm24.112.242c-.403-.242-.645-.242-1.129-.242s-1.613.484-1.774 1.774c-.242 1.613.806 2.34 2.339 1.855l.403 1.371c-.484.242-.968.323-1.774.323-1.533 0-3.226-1.371-2.5-4.194.564-2.016 2.338-2.822 3.387-2.742 1.21.081 1.693.484 2.016.887l-.968.968zm12.662.243c-.323-.243-.484-.646-1.13-.646-.806 0-2.096-.161-2.822 2.339-.484 1.693.484 3.145 1.532 3.145.484 0 .968-.242 1.29-.403l.162.403h1.613l1.29-6.936h-1.532l-.403 2.097z" fill="#fff"/><path d="M35.08 23.145l-.241 1.21c.403 0 1.37-.161 1.854-.161s1.049-.081.888.725c-.404 0-3.065-.403-3.468 1.936-.161 1.129.806 1.693 1.532 1.693s.968-.16 1.21-.322l.161.322h1.371l.565-2.983c.16-.726.403-2.5-2.097-2.5-.242-.081-.807-.081-1.774.08z" fill="#fff"/><path d="M22.661 25h1.855c.08-.564-.08-.968-.645-.968-.645 0-1.048.323-1.21.968zm-10.484 1.048c-.242 0-.806-.16-1.29.162s-.645.887-.08 1.048c.483.161 1.128-.161 1.29-.645l.08-.565zm34.033-.161c.16-.484.08-1.129-.081-1.37-.484-.646-1.532-.162-1.855 1.048-.242.806.242 1.37.726 1.37.564 0 .887-.403 1.21-1.048zm-8.79.161c-.243 0-.807-.16-1.291.162-.484.322-.645.887-.08 1.048.483.161 1.209-.161 1.29-.645l.08-.565z" fill="#2E2E2E"/><path d="M25.806 28.468l1.049-5.404h1.29l.162.565c.242-.242.645-.565 1.451-.565l-.403 1.452c-.323 0-1.049-.08-1.532 1.532l-.484 2.5h-1.532" fill="#fff"/><path d="M14.839 10.161c-6.532 0-12.097 4.274-14.032 10.162H20a15.81 15.81 0 014.194-6.855c-2.662-2.016-5.887-3.307-9.355-3.307zM25 14.274c-1.774 1.694-3.064 3.71-3.871 6.13h7.742c-.806-2.34-2.097-4.436-3.871-6.13zm10.161-4.113c-3.548 0-6.774 1.21-9.355 3.307A15.812 15.812 0 0130 20.323h19.194c-1.855-5.888-7.42-10.162-14.033-10.162z" fill="#2E2E2E"/></svg>