<svg width="80" height="80" fill="none" xmlns="http://www.w3.org/2000/svg"><g clip-path="url(#clip0)"><path d="M21.977 66.867c-4.898 0-9.756-1.035-13.385-3.015-3.457-1.886-5.758-4.562-6.653-7.739-1.787-6.344 2.138-14.287 10-20.237a2.415 2.415 0 012.914 3.851c-3.025 2.29-5.504 5.073-6.98 7.837-1.423 2.669-1.868 5.172-1.286 7.24.543 1.924 1.995 3.542 4.318 4.809 4.83 2.635 12.747 3.196 18.823 1.333 13.073-4.007 16.72-19.43 16.869-20.084a2.415 2.415 0 014.709 1.071c-.119.52-1.244 5.232-4.27 10.377-3.937 6.69-9.432 11.273-15.893 13.253-2.861.877-6.022 1.304-9.166 1.304z" fill="#F3EAE6"/><path d="M60.363 80H23.211a6.439 6.439 0 01-6.371-5.51l-6.441-44.228h62.776l-6.44 44.227A6.439 6.439 0 0160.362 80z" fill="#ACA6D6"/><path d="M73.175 25.433H10.4a2.415 2.415 0 000 4.829h62.776a2.415 2.415 0 100-4.83z" fill="#F3EAE6"/><path d="M73.175 25.433h-4.828a2.415 2.415 0 010 4.829h4.829a2.414 2.414 0 100-4.83z" fill="#E1D3CE"/><path d="M67.995 30.262l-1.656 10.392c-3.4 21.348-21.853 37.032-43.47 36.949l-4.487-.017c-.067 0-.133-.003-.2-.005A6.433 6.433 0 0023.212 80h37.151a6.439 6.439 0 006.371-5.51l6.441-44.228h-5.18z" fill="#978ECB"/><path d="M6.587 54.804c.542 1.924 1.995 3.542 4.318 4.809 4.83 2.635 12.746 3.195 18.823 1.333 13.072-4.007 16.72-19.43 16.869-20.084a2.415 2.415 0 014.708 1.071c-.118.52-1.243 5.232-4.27 10.377-3.936 6.69-9.431 11.273-15.892 13.253-2.861.877-6.022 1.303-9.166 1.303-4.898 0-9.755-1.034-13.385-3.014-3.457-1.886-5.758-4.562-6.653-7.739l4.648-1.31z" fill="#F3EAE6"/><path d="M54.417 43.769a5.612 5.612 0 10-10.923-2.582 5.612 5.612 0 0010.923 2.582z" fill="#978ECB"/><path d="M42.93 30.099a4.055 4.055 0 11-8.11 0v13.28a5.262 5.262 0 11-10.526 0v-16.98a.966.966 0 00-.966-.966H12.356c.697-8.858 8.106-15.829 17.142-15.829a17.14 17.14 0 0112.067 4.946 13.13 13.13 0 014.835-.92c4.47 0 8.416 2.229 10.797 5.633a7.953 7.953 0 015.973-2.846c4.456-.072 8.102 3.642 8.102 8.098v.918H43.896a.966.966 0 00-.966.965v3.7z" fill="#B3DAFE"/><path d="M31.967 28.104a2.39 2.39 0 00-1.977 2.354v12.92a5.26 5.26 0 01-2.848 4.676 5.262 5.262 0 007.677-4.675v-12.93a2.39 2.39 0 00-2.804-2.354l-.048.009zM42.93 26.5h-1.889a2.94 2.94 0 00-2.94 2.94v.659a4.05 4.05 0 01-1.64 3.258 4.055 4.055 0 006.47-3.355v-3.503h-.001zM24.67 12.019c3.91 0 7.516 1.306 10.405 3.505a4.477 4.477 0 003.665.828 13.15 13.15 0 012.83-.307c3.21 0 6.15 1.148 8.433 3.056a4.51 4.51 0 004.896.575 7.93 7.93 0 012.087-.705 13.147 13.147 0 00-10.586-5.34 13.13 13.13 0 00-4.835.92 17.14 17.14 0 00-12.067-4.947c-3.73 0-7.182 1.189-10 3.207a17.183 17.183 0 015.171-.792zm38.631 4.396c-2.268 0-4.312.95-5.764 2.47a7.972 7.972 0 018.786 6.548h4.95v-1.047a7.971 7.971 0 00-7.972-7.97z" fill="#8AC9FE"/><path d="M78.425 4.363A3.756 3.756 0 1071.01 3.16a3.756 3.756 0 007.415 1.202zM52.683 8.17a2.897 2.897 0 10-4.097-4.097 2.897 2.897 0 004.097 4.097zm10.354 2.274a1.207 1.207 0 10-1.708-1.707 1.207 1.207 0 001.708 1.707z" fill="#B3DAFE"/></g><defs><clipPath id="clip0"><path fill="#fff" d="M0 0h80v80H0z"/></clipPath></defs></svg>