<svg width="50" height="50" viewBox="0 0 50 50" fill="none" xmlns="http://www.w3.org/2000/svg">
<path d="M4.28577 20.5953H6.0318L5.15878 18.373L4.28577 20.5953Z" fill="#2E2E2E"/>
<path d="M25.9523 18.6904C25.7936 18.6111 25.5555 18.6111 25.3174 18.6111H23.7301V19.8809H25.3174C25.5555 19.8809 25.7936 19.8809 25.9523 19.8016C26.1111 19.7222 26.1904 19.4841 26.1904 19.246C26.2698 18.9285 26.1111 18.7698 25.9523 18.6904Z" fill="#2E2E2E"/>
<path d="M42.9365 16.3096V17.262L42.4603 16.3096H38.7302V17.262L38.254 16.3096H33.1746C32.3016 16.3096 31.5873 16.4683 30.9524 16.7858V16.3096H27.381V16.7858C26.9841 16.4683 26.5079 16.3096 25.873 16.3096H13.0952L12.2222 18.2937L11.3492 16.3096H7.30159V17.262L6.8254 16.3096H3.4127L1.8254 20.0397L0 24.1667H1.8254H4.04762L4.52381 22.8969H5.63492L6.11111 24.1667H10.7143V23.2143L11.1111 24.1667H13.4127L13.8095 23.2143V24.1667H24.8413V22.1032H25C25.1587 22.1032 25.1587 22.1032 25.1587 22.3413V24.0873H30.873V23.6112C31.3492 23.8493 32.0635 24.0873 33.0159 24.0873H35.3968L35.873 22.8175H36.9841L37.4603 24.0873H42.0635V22.8969L42.7778 24.0873H46.5079V16.3096H42.9365ZM16.1111 22.9762H14.7619V18.6112L12.8571 22.9762H11.6667L9.76191 18.6112V22.9762H7.06349L6.50794 21.7858H3.80952L3.33333 23.0556H1.8254L4.20635 17.4207H6.19048L8.4127 22.7381V17.4207H10.5556L12.3016 21.2302L13.8889 17.4207H16.1111V22.9762ZM21.5079 18.6112H18.4127V19.6429H21.4286V20.754H18.4127V21.8651H21.5079V23.0556H17.0635V17.4207H21.5079V18.6112ZM27.4603 20.9127C27.619 21.2302 27.6984 21.4683 27.6984 21.9445V23.0556H26.3492V22.3413C26.3492 22.0239 26.3492 21.5477 26.1111 21.2302C25.873 20.9921 25.6349 20.9921 25.1587 20.9921H23.7302V23.0556H22.381V17.4207H25.3968C26.1111 17.4207 26.5873 17.4207 26.9841 17.6588C27.381 17.8969 27.619 18.2937 27.619 18.9286C27.619 19.8016 27.0635 20.2778 26.6667 20.4366C27.0635 20.5159 27.3016 20.754 27.4603 20.9127ZM29.8413 22.9762H28.4921V17.3413H29.8413V22.9762ZM45.4762 22.9762H43.5714L41.0317 18.7699V22.9762H38.3333L37.8571 21.7858H35.0794L34.6032 23.0556H33.0952C32.4603 23.0556 31.6667 22.8969 31.1905 22.4207C30.7143 21.9445 30.4762 21.3096 30.4762 20.2778C30.4762 19.4842 30.6349 18.6905 31.1905 18.0556C31.5873 17.5794 32.3016 17.4207 33.1746 17.4207H34.4445V18.6112H33.1746C32.6984 18.6112 32.4603 18.6905 32.1429 18.9286C31.9048 19.1667 31.746 19.6429 31.746 20.1985C31.746 20.8334 31.8254 21.2302 32.1429 21.5477C32.381 21.7858 32.6984 21.8651 33.0952 21.8651H33.6508L35.4762 17.5H37.4603L39.6825 22.8175V17.5H41.6667L43.9683 21.3889V17.5H45.3175V22.9762H45.4762Z" fill="#2E2E2E"/>
<path d="M35.5555 20.5953H37.3809L36.5079 18.373L35.5555 20.5953Z" fill="#2E2E2E"/>
<path d="M22.0635 32.0238V27.5L20 29.7222L22.0635 32.0238Z" fill="#2E2E2E"/>
<path d="M13.5714 28.0554V29.0872H16.5079V30.1983H13.5714V31.3888H16.8254L18.3333 29.7221L16.9047 28.0554H13.5714Z" fill="#2E2E2E"/>
<path d="M25.0794 28.0554H23.4127V29.484H25.1588C25.6349 29.484 25.9524 29.2459 25.9524 28.7697C25.873 28.2935 25.5556 28.0554 25.0794 28.0554Z" fill="#2E2E2E"/>
<path d="M49.6032 29.4047V25.8333H48.6508H46.2698C45.5555 25.8333 45 25.992 44.6032 26.3094V25.8333H40.9524C40.3968 25.8333 39.6825 25.992 39.3651 26.3094V25.8333H32.9365V26.3094C32.4603 25.9126 31.5873 25.8333 31.1905 25.8333H26.9048V26.3094C26.5079 25.9126 25.5555 25.8333 25.0794 25.8333H20.3175L19.2063 27.0237L18.1746 25.8333H11.0317V33.611H18.0159L19.127 32.4205L20.1587 33.611H24.4444V31.7856H25C25.5555 31.7856 26.2698 31.7856 26.8254 31.5475V33.6904H30.3968V31.6269H30.5555C30.7936 31.6269 30.7936 31.6269 30.7936 31.865V33.6904H41.5873C42.3016 33.6904 43.0159 33.5317 43.4127 33.2142V33.6904H46.8254C47.5397 33.6904 48.254 33.611 48.7302 33.2936C49.5238 32.8174 50 31.9444 50 30.9126C50 30.3571 49.8413 29.8015 49.6032 29.4047ZM25 30.6745H23.4127V32.5793H20.873L19.2857 30.7539L17.619 32.5793H12.3809V26.9444H17.6984L19.2857 28.7698L20.9524 26.9444H25.1587C26.1905 26.9444 27.3809 27.2618 27.3809 28.7698C27.3016 30.3571 26.1905 30.6745 25 30.6745ZM32.9365 30.3571C33.0952 30.5952 33.1746 30.9126 33.1746 31.3888V32.4999H31.8254V31.7856C31.8254 31.4682 31.8254 30.9126 31.5873 30.6745C31.4286 30.4364 31.1111 30.4364 30.6349 30.4364H29.2063V32.4999H27.8571V26.865H30.873C31.5079 26.865 32.0635 26.865 32.4603 27.1031C32.8571 27.3412 33.1746 27.738 33.1746 28.3729C33.1746 29.2459 32.619 29.7221 32.2222 29.8809C32.619 30.0396 32.8571 30.1983 32.9365 30.3571ZM38.4127 28.0555H35.3175V29.0872H38.3333V30.1983H35.3175V31.3094H38.4127V32.4999H33.9682V26.865H38.4127V28.0555ZM41.746 32.4999H39.2063V31.3094H41.746C41.9841 31.3094 42.1429 31.3094 42.3016 31.1507C42.3809 31.0713 42.4603 30.9126 42.4603 30.7539C42.4603 30.5952 42.3809 30.4364 42.3016 30.3571C42.2222 30.2777 42.0635 30.1983 41.8254 30.1983C40.5556 30.119 39.0476 30.1983 39.0476 28.4523C39.0476 27.6586 39.5238 26.7856 40.9524 26.7856H43.5714V28.1348H41.1111C40.873 28.1348 40.7143 28.1348 40.5555 28.2142C40.3968 28.2936 40.3968 28.4523 40.3968 28.611C40.3968 28.8491 40.5555 28.9285 40.7143 29.0079C40.873 29.0872 41.0317 29.0872 41.1905 29.0872H41.9048C42.619 29.0872 43.0952 29.2459 43.4127 29.5634C43.6508 29.8015 43.8095 30.1983 43.8095 30.7539C43.8095 31.9444 43.0952 32.4999 41.746 32.4999ZM48.5714 31.9444C48.254 32.2618 47.6984 32.4999 46.9048 32.4999H44.3651V31.3094H46.9048C47.1428 31.3094 47.3016 31.3094 47.4603 31.1507C47.5397 31.0713 47.619 30.9126 47.619 30.7539C47.619 30.5952 47.5397 30.4364 47.4603 30.3571C47.3809 30.2777 47.2222 30.1983 46.9841 30.1983C45.7143 30.119 44.2063 30.1983 44.2063 28.4523C44.2063 27.6586 44.6825 26.7856 46.1111 26.7856H48.7302V28.1348H46.3492C46.1111 28.1348 45.9524 28.1348 45.7936 28.2142C45.6349 28.2936 45.6349 28.4523 45.6349 28.611C45.6349 28.8491 45.7143 28.9285 45.9524 29.0079C46.1111 29.0872 46.2698 29.0872 46.4286 29.0872H47.1428C47.8571 29.0872 48.3333 29.2459 48.6508 29.5634C48.7302 29.5634 48.7302 29.6428 48.7302 29.6428C48.9682 29.9602 49.0476 30.3571 49.0476 30.7539C49.0476 31.2301 48.8889 31.6269 48.5714 31.9444Z" fill="#2E2E2E"/>
<path d="M31.5077 28.2141C31.349 28.1348 31.1109 28.1348 30.8728 28.1348H29.2855V29.4046H30.8728C31.1109 29.4046 31.349 29.4046 31.5077 29.3252C31.6665 29.2459 31.7458 29.0078 31.7458 28.7697C31.8252 28.4522 31.6665 28.2935 31.5077 28.2141Z" fill="#2E2E2E"/>
<path d="M25.9523 18.6904C25.7936 18.6111 25.5555 18.6111 25.3174 18.6111H23.7301V19.8809H25.3174C25.5555 19.8809 25.7936 19.8809 25.9523 19.8016C26.1111 19.7222 26.1904 19.4841 26.1904 19.246C26.2698 18.9285 26.1111 18.7698 25.9523 18.6904Z" fill="#2E2E2E"/>
<path d="M35.5555 20.5953H37.3809L36.5079 18.373L35.5555 20.5953Z" fill="#2E2E2E"/>
<path d="M22.0635 32.0238V27.5L20 29.7222L22.0635 32.0238Z" fill="#2E2E2E"/>
<path d="M25.0794 28.0554H23.4127V29.484H25.1588C25.6349 29.484 25.9524 29.2459 25.9524 28.7697C25.873 28.2935 25.5556 28.0554 25.0794 28.0554Z" fill="#2E2E2E"/>
<path d="M31.5077 28.2141C31.349 28.1348 31.1109 28.1348 30.8728 28.1348H29.2855V29.4046H30.8728C31.1109 29.4046 31.349 29.4046 31.5077 29.3252C31.6665 29.2459 31.7458 29.0078 31.7458 28.7697C31.8252 28.4522 31.6665 28.2935 31.5077 28.2141Z" fill="#2E2E2E"/>
<path d="M24.5238 32.3414L23.4127 31.151V32.5002H20.7936L19.2063 30.6748L17.4603 32.5002H12.2222V26.9446H17.5397L19.2063 28.77L20 27.8176L18.0159 25.8335H11.0317V33.6113H18.0159L19.2063 32.4208L20.2381 33.6113H24.5238V32.3414Z" fill="#2E2E2E"/>
<path d="M16.2698 24.0873L15.2381 22.9762H14.7619V22.5L13.5714 21.3096L12.7778 22.9762H11.6667L9.76191 18.6112V22.9762H7.06349L6.50794 21.7858H3.80952L3.25397 22.9762H1.8254L4.20635 17.4207H6.19048L8.4127 22.7381V17.4207H9.60318L8.49206 16.3096H7.30159V17.262L6.90476 16.3096H3.4127L1.8254 20.0397L0 24.0873H1.8254H4.12698L4.60318 22.8969H5.71429L6.26984 24.0873H10.7143V23.135L11.1111 24.0873H13.4127L13.8095 23.135V24.0873H16.2698Z" fill="#2E2E2E"/>
<path d="M12.6191 20.4366L11.3492 19.1667L12.3016 21.2302L12.6191 20.4366Z" fill="#2E2E2E"/>
<path d="M48.7302 33.2143C49.4445 32.7381 49.9207 31.9444 50 31.0714L48.8889 29.9603C48.9683 30.1984 49.0476 30.4365 49.0476 30.7539C49.0476 31.2301 48.8889 31.627 48.5715 31.9444C48.254 32.2619 47.6984 32.5 46.9048 32.5H44.3651V31.3095H46.9048C47.1429 31.3095 47.3016 31.3095 47.4603 31.1508C47.5397 31.0714 47.6191 30.9127 47.6191 30.7539C47.6191 30.5952 47.5397 30.4365 47.4603 30.3571C47.381 30.2778 47.2223 30.1984 46.9842 30.1984C45.7143 30.119 44.2064 30.1984 44.2064 28.4524C44.2064 27.6587 44.6826 26.9444 45.873 26.7857L45 25.9127C44.8413 25.992 44.7619 26.0714 44.6826 26.0714V25.5952H41.0318C40.4762 25.5952 39.7619 25.7539 39.4445 26.0714V25.5952H32.9365V26.0714C32.4604 25.6746 31.5873 25.5952 31.1905 25.5952H26.9048V26.0714C26.508 25.6746 25.5556 25.5952 25.0794 25.5952H20.3175L19.2064 26.7857L18.1747 25.5952H17.3016L19.6826 27.9762L20.8731 26.7063H25.0794C26.1112 26.7063 27.3016 27.0238 27.3016 28.5317C27.3016 30.119 26.1905 30.4365 25 30.4365H23.4127V31.627L24.6032 32.8174V31.627H25C25.5556 31.627 26.2699 31.627 26.8254 31.3889V33.5317H30.3969V31.4682H30.5556C30.7937 31.4682 30.7937 31.4682 30.7937 31.7063V33.5317H41.5873C42.3016 33.5317 43.0159 33.373 43.4127 33.0555V33.5317H46.8254C47.4603 33.6111 48.1746 33.5317 48.7302 33.2143ZM32.9365 30.3571C33.0953 30.5952 33.1746 30.9127 33.1746 31.3889V32.5H31.8254V31.7857C31.8254 31.4682 31.8254 30.9127 31.5873 30.6746C31.4286 30.4365 31.1112 30.4365 30.635 30.4365H29.2064V32.5H27.8572V26.8651H30.8731C31.508 26.8651 32.0635 26.8651 32.4604 27.1032C32.8572 27.3412 33.1746 27.7381 33.1746 28.373C33.1746 29.246 32.6191 29.7222 32.2223 29.8809C32.6191 30.0397 32.8572 30.1984 32.9365 30.3571ZM38.4127 28.0555H35.3175V29.0873H38.3334V30.1984H35.3175V31.3095H38.4127V32.5H33.9683V26.8651H38.4127V28.0555ZM41.7461 32.5H39.2064V31.3095H41.7461C41.9842 31.3095 42.1429 31.3095 42.3016 31.1508C42.381 31.0714 42.4604 30.9127 42.4604 30.7539C42.4604 30.5952 42.381 30.4365 42.3016 30.3571C42.2223 30.2778 42.0635 30.1984 41.8254 30.1984C40.5556 30.119 39.0477 30.1984 39.0477 28.4524C39.0477 27.6587 39.5238 26.7857 40.9524 26.7857H43.5715V28.1349H41.1111C40.8731 28.1349 40.7143 28.1349 40.5556 28.2143C40.3969 28.2936 40.3969 28.4524 40.3969 28.6111C40.3969 28.8492 40.5556 28.9285 40.7143 29.0079C40.8731 29.0873 41.0318 29.0873 41.1905 29.0873H41.9048C42.6191 29.0873 43.0953 29.246 43.4127 29.5635C43.6508 29.8016 43.8096 30.1984 43.8096 30.7539C43.8096 31.9444 43.0953 32.5 41.7461 32.5Z" fill="#2E2E2E"/>
<path d="M45.5557 28.6112C45.5557 28.8493 45.635 28.9287 45.8731 29.008C46.0319 29.0874 46.1906 29.0874 46.3493 29.0874H47.0636C47.5398 29.0874 47.8573 29.1668 48.1747 29.3255L46.9842 28.135H46.2699C46.0319 28.135 45.8731 28.135 45.7144 28.2144C45.635 28.2937 45.5557 28.4525 45.5557 28.6112Z" fill="#2E2E2E"/>
<path d="M42.7778 23.8492L42.9366 24.0873H43.0159L42.7778 23.8492Z" fill="#2E2E2E"/>
<path d="M38.4127 19.4843L39.7619 22.7382V20.8335L38.4127 19.4843Z" fill="#2E2E2E"/>
<path d="M24.8413 22.1032H25C25.1588 22.1032 25.1588 22.1032 25.1588 22.3413V24.0873H30.873V23.6111C31.3492 23.8492 32.0635 24.0873 33.0159 24.0873H35.3969L35.873 22.8175H36.9842L37.4604 24.0873H42.0635V23.2937L40.9524 22.1826V23.0556H38.254L37.8572 21.7857H35.0794L34.6032 23.0556H33.0953C32.4604 23.0556 31.6667 22.8969 31.1905 22.4207C30.7143 21.9445 30.4762 21.3096 30.4762 20.2778C30.4762 19.4842 30.635 18.6905 31.1905 18.0556C31.5873 17.5794 32.3016 17.4207 33.1746 17.4207H34.4445V18.6111H33.1746C32.6984 18.6111 32.4604 18.6905 32.1429 18.9286C31.9048 19.1667 31.7461 19.6429 31.7461 20.1984C31.7461 20.8334 31.8254 21.2302 32.1429 21.5476C32.381 21.7857 32.6984 21.8651 33.0953 21.8651H33.6508L35.4762 17.5H36.2699L35.1588 16.3889H33.0953C32.2223 16.3889 31.508 16.5476 30.873 16.8651V16.3889H27.381V16.8651C26.9842 16.5476 26.508 16.3889 25.873 16.3889H13.0953L12.2223 18.373L11.3492 16.3889H7.85718L8.96829 17.5H10.5556L11.9048 20.4365L12.381 20.9127L13.8096 17.4207H16.0318V23.0556H14.6826V18.6905L13.3334 21.8651L15.635 24.1667H24.7619L24.8413 22.1032ZM28.4921 17.4207H29.8413V23.0556H28.4921V17.4207ZM21.508 18.6111H18.4127V19.6429H21.4286V20.754H18.4127V21.8651H21.508V23.0556H17.0635V17.4207H21.508V18.6111ZM23.7302 22.9762H22.381V17.3413H25.3969C26.1111 17.3413 26.5873 17.3413 26.9842 17.5794C27.381 17.8175 27.6191 18.2143 27.6191 18.8492C27.6191 19.7222 27.0635 20.1984 26.6667 20.3572C26.9842 20.4365 27.2223 20.6746 27.3016 20.8334C27.4604 21.1508 27.5397 21.3889 27.5397 21.8651V22.9762H26.1905V22.2619C26.1905 21.9445 26.1905 21.4683 25.9524 21.1508C25.873 20.9921 25.635 20.9921 25.1588 20.9921H23.7302V22.9762Z" fill="#2E2E2E"/>
</svg>
