<svg width="80" height="80" viewBox="0 0 80 80" fill="none" xmlns="http://www.w3.org/2000/svg">
<g clip-path="url(#clip0)">
<path d="M57.8066 38.5805L64.5521 43.6714C65.236 44.1877 66.2101 44.0297 66.6976 43.3236L72.8168 34.4618C73.2051 33.8994 73.1699 33.1455 72.731 32.6222L62.3316 20.2224L57.8066 38.5805Z" fill="#57BE92"/>
<path d="M22.1936 77.899V39.3195C22.1936 38.8286 22.1343 38.3396 22.0168 37.8631L17.6685 20.2225L28.6877 15.6773H51.3127L62.3319 20.2225L57.9836 37.8631C57.8661 38.3396 57.8067 38.8288 57.8067 39.3195V77.899C57.8067 78.7357 57.1314 79.414 56.2985 79.414H23.7018C22.869 79.414 22.1936 78.7357 22.1936 77.899Z" fill="#7ACAA6"/>
<path d="M57.5528 18.2511L53.6224 34.8518C53.2883 36.263 53.1196 37.7082 53.1196 39.1585V55.1034C53.1196 67.1852 43.2345 77.0703 31.1527 77.0703H22.1937V77.899C22.1937 78.7357 22.869 79.414 23.7019 79.414H56.2986C57.1316 79.414 57.8069 78.7357 57.8069 77.899V39.3194C57.8069 38.8285 57.8663 38.3394 57.9838 37.8629L62.3319 20.2223L57.5528 18.2511Z" fill="#57BE92"/>
<path d="M22.1935 38.5806L15.4481 43.6716C14.7642 44.1878 13.7901 44.0298 13.3026 43.3238L7.18339 34.4619C6.79511 33.8995 6.83027 33.1456 7.26917 32.6223L17.6685 20.2225L22.1935 38.5806Z" fill="#57BE92"/>
<path d="M51.3128 15.6771H28.6876L28.6414 15.6962C28.7353 19.704 33.7831 22.9348 40.0001 22.9348C46.2171 22.9348 51.265 19.704 51.3589 15.6962L51.3128 15.6771Z" fill="#57BE92"/>
<path d="M40.0002 12.4216C39.9917 12.4216 39.9846 12.4216 39.9763 12.4216C22.7457 12.4168 9.07004 7.18558 0.631653 2.79795C0.0574372 2.49935 -0.165999 1.79186 0.132593 1.21764C0.431185 0.643428 1.13899 0.420304 1.7129 0.718584C9.91941 4.98575 23.2195 10.0734 39.9769 10.0781H40.0002C56.7679 10.0781 70.0745 4.98903 78.2874 0.718584C78.8615 0.420148 79.5692 0.643428 79.8678 1.21764C80.1663 1.79186 79.9428 2.49935 79.3687 2.79795C70.9242 7.1887 57.2399 12.4216 40.0002 12.4216Z" fill="#CBC4CC"/>
<path d="M57.6546 20.9215C56.702 20.9215 55.8932 20.2231 55.7546 19.2804L54.4056 10.107C54.2351 8.9476 55.1337 7.90714 56.3056 7.90714H59.0037C60.1756 7.90714 61.0742 8.9476 60.9037 10.107L59.5546 19.2804C59.4161 20.2231 58.6075 20.9215 57.6546 20.9215Z" fill="#A79BA7"/>
<path d="M22.3454 20.9218C23.2981 20.9218 24.1068 20.2234 24.2454 19.2807L25.5945 10.1073C25.765 8.94791 24.8664 7.90744 23.6945 7.90744H20.9964C19.8245 7.90744 18.9259 8.94791 19.0964 10.1073L20.4454 19.2807C20.584 20.2234 21.3926 20.9218 22.3454 20.9218Z" fill="#A79BA7"/>
</g>
<defs>
<clipPath id="clip0">
<rect width="80" height="80" fill="white"/>
</clipPath>
</defs>
</svg>
