<svg width="80" height="80" viewBox="0 0 80 80" fill="none" xmlns="http://www.w3.org/2000/svg">
<path d="M52.4451 15H27.5C23.1902 15 19.057 16.712 16.0095 19.7595C12.962 22.807 11.25 26.9402 11.25 31.25V76.25H68.75L68.6951 31.229C68.6895 26.9229 66.975 22.795 63.9281 19.7521C60.8813 16.7092 56.7512 15 52.4451 15Z" fill="#65DCFF"/>
<path d="M16.25 30V65H25V36.25V65H22.5V71.25H57.5V65H55V36.25V65H63.75V30L55 23.75H50L46.25 20H33.75L30 23.75H25L16.25 30Z" fill="#3EA7FF"/>
<path d="M26.25 67.5H22.5V65H25V36.25H27.5V66.25C27.5 66.5815 27.3683 66.8995 27.1339 67.1339C26.8995 67.3683 26.5815 67.5 26.25 67.5Z" fill="#2B7CD4"/>
<path d="M57.5 67.5H53.75C53.4185 67.5 53.1005 67.3683 52.8661 67.1339C52.6317 66.8995 52.5 66.5815 52.5 66.25V36.25H55V65H57.5V67.5Z" fill="#2B7CD4"/>
<path d="M41.2499 20H38.7499V11.25C38.7499 10.9185 38.8816 10.6005 39.116 10.3661C39.3504 10.1317 39.6684 9.99999 39.9999 9.99999C40.4944 9.99999 40.9777 9.85337 41.3888 9.57866C41.8 9.30396 42.1204 8.91351 42.3096 8.4567C42.4988 7.99988 42.5483 7.49722 42.4519 7.01226C42.3554 6.52731 42.1173 6.08185 41.7677 5.73222C41.418 5.38259 40.9726 5.14449 40.4876 5.04803C40.0027 4.95156 39.5 5.00107 39.0432 5.19029C38.5864 5.37951 38.1959 5.69994 37.9212 6.11106C37.6465 6.52219 37.4999 7.00554 37.4999 7.49999C37.4999 7.83149 37.3682 8.14943 37.1339 8.38386L35.8839 9.63385L34.116 7.86612L35.0297 6.95243C35.1296 6.04605 35.4755 5.18425 36.0299 4.46028C36.5844 3.73632 37.3262 3.17776 38.1752 2.84503C39.0242 2.5123 39.9481 2.41807 40.8468 2.57254C41.7455 2.72702 42.5848 3.12431 43.274 3.72143C43.9632 4.31855 44.4759 5.09277 44.7568 5.96031C45.0377 6.82786 45.076 7.75569 44.8675 8.64342C44.6591 9.53116 44.2119 10.345 43.5742 10.9969C42.9366 11.6487 42.1328 12.1138 41.2499 12.3418V20Z" fill="#E6E6E6"/>
<path d="M37.5 28.75H42.5L48.75 22.5L46.25 20H33.75L31.25 22.5L37.5 28.75Z" fill="#2B7CD4"/>
<path d="M33.75 26.25L40 22.5L46.25 26.25V20H33.75V26.25Z" fill="#BC8D5D"/>
<path d="M29.9943 23.7513L33.7437 20.0019L39.9928 26.251L36.2434 30.0005L29.9943 23.7513Z" fill="#87C9FF"/>
<path d="M39.9932 26.2519L46.2423 20.0028L49.9917 23.7522L43.7426 30.0013L39.9932 26.2519Z" fill="#87C9FF"/>
<path d="M58.75 58.75H63.75V61.25H58.75V58.75Z" fill="#2B7CD4"/>
<path d="M20 58.75H25V61.25H20V58.75Z" fill="#2B7CD4"/>
<path d="M40 26.25L37.5 28.75V71.25H42.5V28.75L40 26.25Z" fill="#2B7CD4"/>
<path d="M55 41.25V46.25L51.25 48.75L47.5 46.25V41.25H55Z" fill="#87C9FF"/>
</svg>
