<svg width="27" height="27" viewBox="0 0 27 27" fill="none" xmlns="http://www.w3.org/2000/svg">
<g clip-path="url(#clip0)">
<path d="M25.5598 0.0174561H2.37765C1.58383 0.0174561 0.939331 0.660667 0.939331 1.45578V24.638C0.939331 25.4331 1.58383 26.0772 2.37765 26.0772H14.8583V15.9853H11.4624V12.0518H14.8583V9.15114C14.8583 5.78576 16.9132 3.95224 19.916 3.95224C21.3556 3.95224 22.5901 4.05994 22.9501 4.10672V7.62442L20.8673 7.62528C19.2346 7.62528 18.9196 8.40151 18.9196 9.5399V12.0505H22.8149L22.3056 15.9836H18.9192V26.0759H25.5594C26.3541 26.0759 26.999 25.4309 26.999 24.638V1.45492C26.9986 0.660667 26.3545 0.0174561 25.5598 0.0174561Z" fill="#262626"/>
</g>
<defs>
<clipPath id="clip0">
<rect width="26.0606" height="26.0601" fill="white" transform="translate(0.939331 0.0164795)"/>
</clipPath>
</defs>
</svg>
