<svg width="80" height="80" viewBox="0 0 80 80" fill="none" xmlns="http://www.w3.org/2000/svg">
<path d="M61.8091 30.4271L59.5729 29.3091L66.7935 14.868C67.257 13.9383 67.4988 12.9138 67.5 11.875C67.5 11.0625 67.2738 10.2661 66.8466 9.57495C66.4195 8.88381 65.8083 8.32527 65.0816 7.96191C64.3549 7.59854 63.5414 7.44472 62.7322 7.51767C61.923 7.59063 61.1501 7.88747 60.5001 8.37494L55.9999 11.75L54.5 9.74991L59.0001 6.37497C60.0215 5.60892 61.2361 5.14243 62.5077 5.02778C63.7793 4.91313 65.0577 5.15484 66.1997 5.72583C67.3416 6.29682 68.302 7.17453 68.9733 8.26062C69.6445 9.3467 70 10.5982 70 11.875C69.9983 13.3019 69.6662 14.7091 69.0296 15.9862L61.8091 30.4271Z" fill="#BED3F7"/>
<path d="M27.5 40L56.25 68.75L60.4734 72.9734C60.9074 73.4069 61.4782 73.6766 62.0887 73.7365C62.6992 73.7964 63.3116 73.6429 63.8215 73.302C64.3315 72.9612 64.7076 72.4541 64.8857 71.8671C65.0638 71.2801 65.033 70.6496 64.7984 70.0828C64.6644 69.7612 64.4691 69.4688 64.2234 69.2219C63.3734 68.3734 61.8797 66.8781 60 65L35 40H27.5Z" fill="#BED3F7"/>
<path d="M56.25 68.75L60.4734 72.9734C60.9074 73.4069 61.4782 73.6766 62.0887 73.7365C62.6992 73.7964 63.3116 73.6429 63.8215 73.302C64.3315 72.9612 64.7076 72.4541 64.8857 71.8671C65.0638 71.2801 65.033 70.6496 64.7984 70.0828C64.6644 69.7612 64.4691 69.4688 64.2234 69.2219C63.3734 68.3734 61.8797 66.8781 60 65L56.25 68.75Z" fill="#AEC1E8"/>
<path d="M52.5 40L23.75 68.75L19.5266 72.9734C19.0926 73.4069 18.5217 73.6766 17.9113 73.7365C17.3008 73.7964 16.6884 73.6429 16.1785 73.302C15.6685 72.9612 15.2924 72.4541 15.1143 71.8671C14.9362 71.2801 14.967 70.6496 15.2016 70.0828C15.3356 69.7612 15.5309 69.4688 15.7766 69.2219C16.6265 68.3734 18.1203 66.8781 20 65L45 40H52.5Z" fill="#D1E4FF"/>
<path d="M3.75 28.75H76.25V33.75H3.75V28.75Z" fill="#486BE0"/>
<path d="M15 28.75V45L22.5 55L27.5 51.25L23.75 43.75V40L62.5 52.5V28.75H15Z" fill="#548AFF"/>
<path d="M49.6537 12.3141L54.9999 8.75L57.4999 12.5L52.267 15.9888L49.6537 12.3141Z" fill="#FFB401"/>
<path d="M28.75 23.75V20C28.75 17.6794 29.6719 15.4538 31.3128 13.8128C32.9538 12.1719 35.1794 11.25 37.5 11.25H51.25L55 18.75L52.5 23.75H48.75V16.25H38.75L35 20V23.75H28.75Z" fill="#FFC431"/>
<path d="M52.5 23.75L50 28.75H23.75L26.25 23.75H52.5Z" fill="#D1E4FF"/>
<path d="M25 35C25 34.3096 24.4404 33.75 23.75 33.75C23.0596 33.75 22.5 34.3096 22.5 35V38.75C22.5 39.4404 23.0596 40 23.75 40C24.4404 40 25 39.4404 25 38.75V35Z" fill="#4F7FF7"/>
<path d="M23.75 68.75L19.5266 72.9734C19.0926 73.4069 18.5217 73.6766 17.9113 73.7365C17.3008 73.7964 16.6884 73.6429 16.1785 73.302C15.6685 72.9612 15.2924 72.4541 15.1143 71.8671C14.9362 71.2801 14.967 70.6496 15.2016 70.0828C15.3356 69.7612 15.5309 69.4688 15.7766 69.2219C16.6266 68.3734 18.1203 66.8781 20 65L23.75 68.75Z" fill="#BED3F7"/>
<path d="M38.75 23.75L41.25 20H48.75V23.75H38.75Z" fill="#FFB401"/>
</svg>
