<svg width="80" height="80" viewBox="0 0 80 80" fill="none" xmlns="http://www.w3.org/2000/svg">
<path d="M9.93201 30.6711L13.277 44.722H51.7229L55.0679 30.6711H9.93201Z" fill="#8C6231"/>
<path d="M7.49999 26.25L4.80906 19.9711C4.4812 19.2061 4.33962 18.3742 4.39598 17.5438C4.45234 16.7134 4.70501 15.9083 5.13323 15.1946L5.19609 15.0898C5.83891 14.0185 6.84221 13.211 8.02624 12.8121C9.21027 12.4133 10.4976 12.449 11.6577 12.9131C12.3188 13.1775 12.9194 13.5735 13.4229 14.0771C13.9264 14.5806 14.3224 15.1811 14.5869 15.8423L18.75 26.25H7.49999Z" fill="#3EA7FF"/>
<path d="M27.5 20L29.8467 15.3067C31.5796 11.8409 34.2649 8.94109 37.5875 6.94748C38.3482 6.49109 39.2186 6.25 40.1057 6.25C40.7484 6.25 41.3848 6.37659 41.9786 6.62256C42.5724 6.86852 43.112 7.22904 43.5665 7.68352C44.021 8.138 44.3815 8.67755 44.6274 9.27136C44.8734 9.86517 45 10.5016 45 11.1443V11.252C45 12.0709 44.7945 12.8767 44.4024 13.5956L37.5 26.25H27.5V20Z" fill="#FFCC77"/>
<path d="M8.82373 17.9346L11.1637 17.0571L15.6283 28.9627L13.2883 29.8402L8.82373 17.9346Z" fill="#2B7CD4"/>
<path d="M18.75 26.25L14.587 15.8423C14.2339 14.9597 13.6483 14.1893 12.8922 13.6131C12.0413 12.9802 11.4016 12.1048 11.057 11.1019L11.0194 10.9887C9.59146 6.68391 14.3054 2.90336 18.1762 5.26697C18.2044 5.28416 18.2325 5.30151 18.2605 5.31902H18.2605C21.8158 7.54111 24.5172 10.898 25.9273 14.8464L30 26.25H18.75Z" fill="#65DCFF"/>
<path d="M23.7998 30.3489L21.5656 22.6623C21.5612 22.6471 21.557 22.6319 21.5532 22.6166C20.5972 18.7749 18.8788 15.1645 16.5001 12L18.5001 10.5C21.0742 13.9245 22.9352 17.8305 23.9728 21.987L26.2004 29.6511L23.7998 30.3489Z" fill="#57C1FF"/>
<path d="M33.75 26.25L35.0905 23.5691C38.2644 17.2211 43.5463 12.1738 50.0319 9.29138H50.0319C50.8244 8.93914 51.7067 8.84133 52.5571 9.01142C53.1605 9.13209 53.7299 9.38408 54.2249 9.7495C54.72 10.1149 55.1286 10.5848 55.4216 11.1258C55.7147 11.6669 55.8851 12.2658 55.9208 12.88C55.9564 13.4943 55.8564 14.1089 55.6279 14.6802L55.4491 15.1274C55.1557 15.8608 54.661 16.4965 54.0222 16.9612L41.25 26.25H33.75Z" fill="#F2E368"/>
<path d="M38.75 26.25L38.9139 26.0533C42.8522 21.3273 48.2898 18.092 54.3222 16.8856L54.6221 16.8256C55.4838 16.6532 56.3766 16.7282 57.1975 17.0418C58.0183 17.3555 58.7337 17.8949 59.2609 18.5979C59.835 19.3634 60.1453 20.2944 60.1451 21.2512C60.1449 22.2081 59.8343 23.139 59.2599 23.9043C59.113 24.1 58.9671 24.2945 58.8257 24.4828C58.4139 25.0316 57.8801 25.477 57.2664 25.7837C56.6527 26.0904 55.976 26.2501 55.2899 26.25H38.75Z" fill="#A0CC00"/>
<path d="M39.8831 27.075L53.2516 21.3435L54.2366 23.641L40.8681 29.3725L39.8831 27.075Z" fill="#85B200"/>
<path d="M8.71606 30.9605L12.0609 45.0116L8.71606 30.9605Z" fill="#A1764A"/>
<path d="M7.51428 31.2521L9.94678 30.6721L13.2977 44.7257L10.8652 45.3057L7.51428 31.2521Z" fill="#A1764A"/>
<path d="M52.939 45.0116L56.2838 30.9605L52.939 45.0116Z" fill="#A1764A"/>
<path d="M51.7504 44.7296L55.1013 30.676L57.5338 31.256L54.1829 45.3096L51.7504 44.7296Z" fill="#A1764A"/>
<path d="M14.3834 44.6281L11.567 30.1433L14.2826 31.0114L16.8375 44.1509L14.3834 44.6281Z" fill="#A1764A"/>
<path d="M19.1566 44.2631L17.1484 29.805L19.8492 31.078L21.6327 43.9192L19.1566 44.2631Z" fill="#A1764A"/>
<path d="M23.9911 44.195L22.7919 29.805L25.4123 31.1461L26.4823 43.9874L23.9911 44.195Z" fill="#A1764A"/>
<path d="M28.8293 44.126L28.4315 29.805L30.9717 31.2153L31.3284 44.0564L28.8293 44.126Z" fill="#A1764A"/>
<path d="M36.1842 43.631L33.6852 43.5616L34.0282 31.2153L36.5683 29.805L36.1842 43.631Z" fill="#A1764A"/>
<path d="M41.0088 44.195L38.5176 43.9874L39.5876 31.1461L42.2409 29.4099L41.0088 44.195Z" fill="#A1764A"/>
<path d="M45.7807 44.7144L43.3044 44.3705L45.1507 31.078L47.8515 29.805L45.7807 44.7144Z" fill="#A1764A"/>
<path d="M50.6745 44.3297L48.2205 43.8527L50.7173 31.0114L53.4987 29.805L50.6745 44.3297Z" fill="#A1764A"/>
<path d="M58.75 26.25H6.25C4.86929 26.25 3.75 27.3693 3.75 28.75C3.75 30.1307 4.86929 31.25 6.25 31.25H58.75C60.1307 31.25 61.25 30.1307 61.25 28.75C61.25 27.3693 60.1307 26.25 58.75 26.25Z" fill="#BC8D5D"/>
<path d="M54.8218 42.5L51.7078 55.5797C51.577 56.1266 51.2659 56.6135 50.8245 56.9619C50.3831 57.3103 49.8373 57.4999 49.275 57.5H15.725C15.1627 57.4999 14.6168 57.3103 14.1754 56.9619C13.734 56.6135 13.4229 56.1266 13.2922 55.5797L10.1781 42.5H54.8218Z" fill="#BC8D5D"/>
<path d="M16.25 46.25H20V48.75H16.25V46.25Z" fill="#A1764A"/>
<path d="M22.5 46.25H27.5V48.75H22.5V46.25Z" fill="#A1764A"/>
<path d="M30 46.25H35V48.75H30V46.25Z" fill="#A1764A"/>
<path d="M37.5 46.25H42.5V48.75H37.5V46.25Z" fill="#A1764A"/>
<path d="M45 46.25H48.75V48.75H45V46.25Z" fill="#A1764A"/>
<path d="M18.75 51.25H23.75V53.75H18.75V51.25Z" fill="#A1764A"/>
<path d="M26.25 51.25H31.25V53.75H26.25V51.25Z" fill="#A1764A"/>
<path d="M33.75 51.25H38.75V53.75H33.75V51.25Z" fill="#A1764A"/>
<path d="M41.25 51.25H46.25V53.75H41.25V51.25Z" fill="#A1764A"/>
<path d="M21.875 70H48.75L51.9982 69.7047L51.9444 76.25H21.875C21.0462 76.25 20.2513 75.9208 19.6653 75.3347C19.0792 74.7487 18.75 73.9538 18.75 73.125C18.75 72.2962 19.0792 71.5013 19.6653 70.9153C20.2513 70.3292 21.0462 70 21.875 70Z" fill="#FFCC77"/>
<path d="M21.875 63.75H48.75L52.4163 63.0834L51.9982 69.7047L48.75 70H21.875C21.0462 70 20.2513 69.6708 19.6653 69.0847C19.0792 68.4987 18.75 67.7038 18.75 66.875C18.75 66.0462 19.0792 65.2514 19.6653 64.6653C20.2513 64.0793 21.0462 63.75 21.875 63.75Z" fill="#F2E368"/>
<path d="M21.875 57.5H48.75L53.015 56.3368L52.4163 63.0834L48.75 63.75H21.875C21.0462 63.75 20.2513 63.4208 19.6653 62.8347C19.0792 62.2487 18.75 61.4538 18.75 60.625C18.75 59.7962 19.0792 59.0014 19.6653 58.4153C20.2513 57.8293 21.0462 57.5 21.875 57.5Z" fill="#A0CC00"/>
<path d="M72.2573 76.25H51.86C51.4515 76.25 51.0471 76.1696 50.6698 76.0133C50.2925 75.857 49.9497 75.6279 49.6609 75.3391C49.3721 75.0503 49.143 74.7075 48.9867 74.3302C48.8304 73.9529 48.75 73.5485 48.75 73.14V72.84C48.75 72.064 49.0402 71.316 49.5635 70.7429C50.0868 70.1698 50.8055 69.8131 51.5784 69.7429L71.8958 67.8958C72.4483 67.8456 73.0053 67.9111 73.5311 68.0881C74.0569 68.2651 74.54 68.5497 74.9497 68.9238C75.3594 69.298 75.6866 69.7534 75.9105 70.261C76.1344 70.7686 76.25 71.3173 76.25 71.8721V72.2573C76.25 73.3162 75.8293 74.3318 75.0806 75.0806C74.3318 75.8293 73.3162 76.25 72.2573 76.25Z" fill="#FCB73F"/>
<path d="M72.6188 67.8301L52.1415 69.6917C51.7111 69.7308 51.2773 69.6798 50.8678 69.5419C50.4582 69.4041 50.0819 69.1824 49.7628 68.891C49.4437 68.5996 49.1888 68.2448 49.0144 67.8494C48.8401 67.454 48.75 67.0266 48.75 66.5945V66.3455C48.75 65.6172 49.0056 64.912 49.4723 64.3528C49.9389 63.7936 50.5871 63.416 51.3036 63.2857L71.5431 59.6058C72.1184 59.5012 72.7098 59.5243 73.2753 59.6734C73.8408 59.8225 74.3666 60.094 74.8156 60.4687C75.2646 60.8434 75.6258 61.3122 75.8737 61.8419C76.1215 62.3716 76.25 62.9493 76.25 63.5341V63.8538C76.25 64.8502 75.8775 65.8105 75.2056 66.5462C74.5337 67.282 73.611 67.7399 72.6188 67.8301Z" fill="#EACF4D"/>
<path d="M72.9715 59.3461L52.4163 63.0834C51.9681 63.1649 51.5075 63.1469 51.067 63.0308C50.6266 62.9146 50.217 62.7032 49.8673 62.4113C49.5175 62.1194 49.2362 61.7543 49.0431 61.3417C48.8501 60.9291 48.75 60.4791 48.75 60.0236V59.8754C48.75 59.1931 48.9743 58.5298 49.3885 57.9876C49.8026 57.4455 50.3835 57.0545 51.0417 56.875L71.2067 51.3754C71.799 51.2139 72.4206 51.1911 73.0232 51.3089C73.6257 51.4266 74.1929 51.6818 74.6808 52.0544C75.1687 52.4271 75.5641 52.9072 75.8363 53.4575C76.1084 54.0079 76.25 54.6135 76.25 55.2274V55.4178C76.25 56.3528 75.9218 57.2582 75.3227 57.9761C74.7236 58.694 73.8915 59.1788 72.9715 59.3461Z" fill="#85B200"/>
<path d="M71.2067 51.3754L48.75 54.375L24.6354 54.9414C22.9095 54.9414 18.75 54.375 18.75 54.375C18.75 53.4653 19.0365 52.5787 19.5689 51.8411C20.1014 51.1035 20.8526 50.5523 21.716 50.2658L43.75 42.9542H72.2458C74.4573 42.9542 72.5 47.5 72.5 47.5L71.2067 51.3754Z" fill="#A0EAFF"/>
<path d="M21.875 51.25H48.75L51.9444 50.0884L53.015 56.3368L48.75 57.5H21.875C21.0462 57.5 20.2513 57.1707 19.6653 56.5847C19.0792 55.9986 18.75 55.2038 18.75 54.375C18.75 53.5462 19.0792 52.7513 19.6653 52.1653C20.2513 51.5792 21.0462 51.25 21.875 51.25Z" fill="#65DCFF"/>
<path d="M73.3078 50.8024L52.6782 56.4287C52.2169 56.5545 51.7327 56.5722 51.2634 56.4805C50.7941 56.3888 50.3523 56.1901 49.9722 55.8998C49.5922 55.6095 49.2842 55.2355 49.0723 54.8069C48.8603 54.3782 48.75 53.9065 48.75 53.4283C48.75 52.7899 48.9465 52.167 49.3127 51.6441C49.6789 51.1213 50.1972 50.7237 50.7971 50.5056L70.8928 43.1981C71.4959 42.9787 72.1431 42.908 72.7793 42.9919C73.4156 43.0759 74.0222 43.3119 74.5479 43.6801C75.0736 44.0483 75.5027 44.5377 75.799 45.107C76.0953 45.6763 76.25 46.3086 76.25 46.9504V46.9504C76.25 47.8263 75.962 48.6779 75.4303 49.3739C74.8987 50.07 74.1529 50.5719 73.3078 50.8024Z" fill="#57C1FF"/>
<path d="M48.75 43.75L51.25 47.5L68.125 44.2045L62.5 37.5V37.5C61.7328 39.0344 60.5937 40.3522 59.1866 41.3334C57.7794 42.3146 56.149 42.9279 54.444 43.1173L48.75 43.75Z" fill="#65DCFF"/>
<path d="M46.9575 41.9575L48.75 43.75L42.5 46.25L41.25 45L45 40L47.4761 38.762C47.1933 38.9034 46.9482 39.1099 46.7609 39.3646C46.5736 39.6194 46.4495 39.9149 46.3989 40.227C46.3482 40.5391 46.3725 40.8587 46.4696 41.1596C46.5667 41.4605 46.734 41.734 46.9575 41.9575Z" fill="#65DCFF"/>
<path d="M62.5 37.5H50L47.4758 38.7621C47.193 38.9035 46.9479 39.11 46.7607 39.3647C46.5734 39.6194 46.4493 39.9149 46.3987 40.227C46.348 40.539 46.3723 40.8586 46.4694 41.1595C46.5665 41.4603 46.7337 41.7338 46.9573 41.9573L48.75 43.75L54.444 43.1173C56.149 42.9279 57.7794 42.3146 59.1865 41.3334C60.5937 40.3522 61.7328 39.0344 62.5 37.5V37.5Z" fill="#57C1FF"/>
</svg>
