<svg width="27" height="27" viewBox="0 0 27 27" fill="none" xmlns="http://www.w3.org/2000/svg">
<path d="M23.807 0H2.36771C1.06008 0 0 1.06008 0 2.36771V23.8069C0 25.1146 1.06008 26.1747 2.36771 26.1747H23.8069C25.1146 26.1747 26.1747 25.1146 26.1747 23.8069V2.36771C26.1747 1.06008 25.1146 0 23.807 0ZM8.09956 22.601C8.09956 22.9815 7.79108 23.29 7.41052 23.29H4.47745C4.09689 23.29 3.78841 22.9815 3.78841 22.601V10.3056C3.78841 9.92507 4.09689 9.6166 4.47745 9.6166H7.41052C7.79108 9.6166 8.09956 9.92507 8.09956 10.3056V22.601ZM5.94399 8.45758C4.40509 8.45758 3.15755 7.21003 3.15755 5.67114C3.15755 4.13224 4.40509 2.8847 5.94399 2.8847C7.48288 2.8847 8.73043 4.13224 8.73043 5.67114C8.73043 7.21003 7.48295 8.45758 5.94399 8.45758ZM23.4277 22.6565C23.4277 23.0063 23.144 23.29 22.7942 23.29H19.6468C19.2969 23.29 19.0132 23.0063 19.0132 22.6565V16.8893C19.0132 16.0289 19.2656 13.1192 16.7649 13.1192C14.8252 13.1192 14.4317 15.1108 14.3527 16.0046V22.6565C14.3527 23.0063 14.0691 23.29 13.7192 23.29H10.6751C10.3252 23.29 10.0416 23.0063 10.0416 22.6565V10.2501C10.0416 9.90027 10.3252 9.6166 10.6751 9.6166H13.7192C14.069 9.6166 14.3527 9.90027 14.3527 10.2501V11.3228C15.072 10.2434 16.1409 9.41028 18.4168 9.41028C23.4566 9.41028 23.4277 14.1187 23.4277 16.7058V22.6565Z" fill="#262626"/>
</svg>
