<svg width="50" height="50" viewBox="0 0 50 50" fill="none" xmlns="http://www.w3.org/2000/svg">
<path d="M50 25C50 16.8548 43.3871 10.1613 35.1613 10.1613C31.6129 10.1613 28.3871 11.3709 25.8065 13.4677C27.7419 15.3225 29.2742 17.6613 30 20.3225H28.7903C27.9839 17.9838 26.6935 15.8871 24.9194 14.1935C23.1452 15.8871 21.8548 17.9838 21.0484 20.3225H19.8387C20.6452 17.6613 22.0968 15.3225 24.0323 13.4677C21.4516 11.3709 18.3065 10.1613 14.7581 10.1613C6.6129 10.1613 0 16.8548 0 25C0 33.1451 6.6129 39.8387 14.8387 39.8387C18.3871 39.8387 21.6129 38.5484 24.1129 36.5322C22.1774 34.6774 20.7258 32.3387 19.9194 29.6774H21.129C21.9355 32.0161 23.2258 34.1129 25 35.8064C26.7742 34.1129 28.1452 32.0161 28.871 29.6774H30.0806C29.2742 32.3387 27.8226 34.6774 25.8871 36.5322C28.4677 38.629 31.6935 39.8387 35.2419 39.8387C43.3871 39.8387 50 33.1451 50 25Z" fill="#2E2E2E"/>
<path d="M39.1128 28.4678L40.1612 22.9839H41.4515L41.6128 23.5484C41.8547 23.3065 42.258 22.9839 43.0644 22.9839L42.6612 24.4355C42.258 24.4355 41.6128 24.3549 41.1289 25.9678L40.6451 28.4678H39.1128Z" fill="white"/>
<path d="M19.3549 21.6129H20.8065L20.4839 23.0645H21.2904L21.0484 24.1936H20.3226L19.9194 26.371C19.8387 26.7742 19.9194 27.1774 20.7258 27.0161L20.5645 28.2258C20.242 28.4678 19.8387 28.4678 19.4355 28.4678C19.1129 28.4678 17.9839 28.2258 18.2258 26.7742L19.3549 21.6129Z" fill="white"/>
<path d="M25.8063 26.0484C25.9676 25.1613 26.3709 22.9839 23.7902 22.9839C21.3709 22.9839 21.0483 25.4032 21.0483 25.7258C20.9676 26.0484 20.9676 28.4678 23.5483 28.4678C24.1934 28.4678 25.0805 28.3871 25.4838 28.2258L25.7257 27.0968C25.4838 27.1774 24.6773 27.2581 24.0322 27.2581C23.4676 27.2581 22.4999 27.2581 22.6612 26.0484H25.8063Z" fill="white"/>
<path d="M17.9032 24.2742L18.2258 23.1451C17.5 22.9032 16.9355 22.9032 16.7742 22.9032C16.5323 22.9032 14.7581 22.9032 14.5161 24.1935C14.2742 25.2419 14.6774 25.6451 15 25.8064C15.5645 26.0484 15.8871 26.2903 16.2097 26.4516C16.6129 26.6129 16.5323 27.258 16.0484 27.258C15.8065 27.258 14.8387 27.3387 14.1129 27.0967L13.871 28.2258C14.5968 28.3871 15.0806 28.3871 15.6452 28.3871C16.0484 28.3871 17.8226 28.4677 18.0645 26.8548C18.2258 26.0484 17.8226 25.7258 17.5806 25.4838C17.2581 25.3226 16.8548 25 16.5323 24.9193C16.2097 24.758 15.9677 24.2742 16.5323 24.1129C16.7742 24.1935 17.5 24.1935 17.9032 24.2742Z" fill="white"/>
<path d="M8.22577 28.4678L9.51609 21.8549H7.01609L5.2419 25.8871L4.91932 21.8549H2.58061L1.29028 28.4678H2.7419L3.70964 23.7097L4.11286 28.4678H5.48383L7.58061 23.7903L6.69351 28.4678H8.22577Z" fill="white"/>
<path d="M9.91927 23.1452L9.67734 24.3549C10.0806 24.3549 11.0483 24.1936 11.5322 24.1936C12.016 24.1936 12.6612 24.113 12.4193 24.9194C12.016 24.9194 9.35476 24.5162 8.95153 26.8549C8.79024 27.9839 9.75798 28.5484 10.4838 28.5484C11.2096 28.5484 11.4515 28.3871 11.6935 28.2259L11.8548 28.5484H13.2257L13.7902 25.5646C13.9515 24.8388 14.1935 23.0646 11.6935 23.0646C11.3709 22.9839 10.887 22.9839 9.91927 23.1452Z" fill="white"/>
<path d="M34.0322 23.3872C33.629 23.1452 33.387 23.1452 32.9032 23.1452C32.4193 23.1452 31.2903 23.6291 31.129 24.9194C30.887 26.5323 31.9354 27.2581 33.4677 26.7743L33.8709 28.1452C33.387 28.3872 32.9032 28.4678 32.0967 28.4678C30.5645 28.4678 28.8709 27.0968 29.5967 24.2743C30.1612 22.2581 31.9354 21.4517 32.9838 21.5323C34.1935 21.613 34.6774 22.0162 35 22.4194L34.0322 23.3872Z" fill="white"/>
<path d="M46.6936 23.6291C46.371 23.3872 46.2097 22.984 45.5646 22.984C44.7581 22.984 43.4678 22.8227 42.742 25.3227C42.2581 27.0162 43.2259 28.4678 44.2742 28.4678C44.7581 28.4678 45.242 28.2259 45.5646 28.0646L45.7258 28.4678H47.3388L48.6291 21.5323H47.0968L46.6936 23.6291Z" fill="white"/>
<path d="M35.0805 23.1452L34.8386 24.3549C35.2418 24.3549 36.2096 24.1936 36.6934 24.1936C37.1773 24.1936 37.7418 24.113 37.5805 24.9194C37.1773 24.9194 34.516 24.5162 34.1128 26.8549C33.9515 27.9839 34.9192 28.5484 35.645 28.5484C36.3709 28.5484 36.6128 28.3871 36.8547 28.2259L37.016 28.5484H38.387L38.9515 25.5646C39.1128 24.8388 39.3547 23.0646 36.8547 23.0646C36.6128 22.9839 36.0483 22.9839 35.0805 23.1452Z" fill="white"/>
<path d="M22.6613 25H24.5161C24.5967 24.4355 24.4354 24.0322 23.8709 24.0322C23.2258 24.0322 22.8225 24.3548 22.6613 25Z" fill="#2E2E2E"/>
<path d="M12.1773 26.0484C11.9354 26.0484 11.3709 25.8871 10.887 26.2097C10.4031 26.5322 10.2418 27.0968 10.8063 27.2581C11.2902 27.4193 11.9354 27.0968 12.0967 26.6129L12.1773 26.0484Z" fill="#2E2E2E"/>
<path d="M46.2095 25.8872C46.3708 25.4033 46.2902 24.7581 46.1289 24.5162C45.645 23.871 44.5966 24.3549 44.2741 25.5646C44.0321 26.371 44.516 26.9356 44.9999 26.9356C45.5644 26.9356 45.887 26.5323 46.2095 25.8872Z" fill="#2E2E2E"/>
<path d="M37.4193 26.0484C37.1773 26.0484 36.6128 25.8871 36.1289 26.2097C35.6451 26.5322 35.4838 27.0968 36.0483 27.2581C36.5322 27.4193 37.258 27.0968 37.3386 26.6129L37.4193 26.0484Z" fill="#2E2E2E"/>
<path d="M25.8065 28.4677L26.8549 23.0645H28.1452L28.3065 23.629C28.5485 23.387 28.9517 23.0645 29.7581 23.0645L29.3549 24.5161C29.0323 24.5161 28.3065 24.4354 27.8226 26.0483L27.3388 28.5483H25.8065" fill="white"/>
<path d="M14.8388 10.1613C8.30652 10.1613 2.742 14.4354 0.806519 20.3225H20.0001C20.8065 17.6613 22.2581 15.3225 24.1936 13.4677C21.5323 11.4516 18.3065 10.1613 14.8388 10.1613Z" fill="#2E2E2E"/>
<path d="M25 14.2742C23.2258 15.9677 21.9355 17.9838 21.129 20.4032H28.871C28.0645 18.0645 26.7742 15.9677 25 14.2742Z" fill="#2E2E2E"/>
<path d="M35.1614 10.1613C31.613 10.1613 28.3872 11.3709 25.8065 13.4677C27.742 15.3225 29.1936 17.6613 30.0001 20.3225H49.1936C47.3388 14.4354 41.7743 10.1613 35.1614 10.1613Z" fill="#2E2E2E"/>
</svg>
