<svg width="50" height="50" viewBox="0 0 50 50" fill="none" xmlns="http://www.w3.org/2000/svg">
<g opacity="0.5">
<path d="M8.96151 20.4368C8.79785 20.1085 8.53897 19.8377 8.2176 19.6344C7.88234 19.4291 7.48657 19.2853 7.03427 19.2C6.57404 19.1166 6.04239 19.0789 5.42643 19.073L2.58269 19.075C2.28711 19.079 1.99748 19.3091 1.92804 19.5947L0.0146945 27.9286C-0.0547376 28.2103 0.130745 28.4463 0.426327 28.4463H1.78819C2.08377 28.4463 2.37638 28.2172 2.44184 27.9286L2.90902 25.9051C2.97151 25.6234 3.26312 25.3883 3.56168 25.3883H3.95149C5.61687 25.3864 6.90632 25.0461 7.83274 24.3647C8.76412 23.6823 9.22337 22.7807 9.22337 21.6638C9.22238 21.1748 9.14203 20.7642 8.96151 20.4368ZM6.02453 23.1596C5.6129 23.4611 5.04058 23.6119 4.30262 23.6119H3.96935C3.67277 23.6119 3.49126 23.3778 3.55573 23.0921L3.96538 21.3226C4.02291 21.0389 4.32147 20.8038 4.61407 20.8058L5.06042 20.8028C5.58116 20.8028 5.97891 20.8931 6.24473 21.0677C6.50758 21.2403 6.6395 21.515 6.63752 21.879C6.64545 22.4325 6.43418 22.858 6.02453 23.1596Z" fill="black"/>
<path d="M47.7842 19.7257L47.6989 19.7515L47.5848 19.7674L47.445 19.7456L47.3736 19.6761L47.3408 19.567L47.3388 19.4034V18.7973H47.7941V18.6098H47.3388V18.2319H47.1137V18.6098H46.9609V18.7973H47.1137V19.5025L47.2188 19.8517L47.5283 19.9628L47.6582 19.9519L47.7961 19.9251V19.7257H47.7842Z" fill="black"/>
<path d="M49.8959 18.706L49.5705 18.5721L49.3305 18.6207L49.0865 18.7854L48.9447 18.6277L48.7145 18.5731L48.4933 18.6217L48.2841 18.7566V18.6098H48.0629V19.934H48.2831V18.9451L48.4685 18.83L48.653 18.7844L48.8038 18.8112L48.8782 18.8876L48.9109 19.0145L48.9218 19.1782V19.935H49.143V19.0879L49.1391 19.0175L49.1351 18.953L49.3236 18.833L49.51 18.7864L49.6558 18.8132L49.7352 18.8895L49.763 19.0175L49.7778 19.1792V19.936H50V19.076L49.8959 18.706Z" fill="black"/>
<path d="M15.529 21.628C15.0152 21.3384 14.2039 21.1936 13.0949 21.1936C12.5464 21.1936 11.9999 21.2363 11.4474 21.3216C11.0397 21.384 11.0001 21.3959 10.7491 21.4505C10.2313 21.5636 10.15 22.0803 10.15 22.0803L9.98338 22.7657C9.88915 23.2032 10.1411 23.1863 10.2462 23.1496C10.4724 23.0822 10.5983 23.0127 11.0606 22.9096C11.502 22.8094 11.9671 22.734 12.3361 22.739C12.8807 22.739 13.2973 22.7965 13.575 22.9135C13.8488 23.0326 13.9856 23.2369 13.9856 23.5325L13.9618 23.7249L13.7654 23.8459C12.9928 23.8945 12.4343 23.9659 11.7569 24.0641C11.0943 24.1564 10.513 24.318 10.03 24.5392C9.51124 24.7674 9.12639 25.0739 8.85759 25.4637C8.59771 25.8555 8.46777 26.3306 8.46777 26.888C8.46777 27.4127 8.65623 27.8462 9.02224 28.1814C9.39023 28.5107 9.87625 28.6714 10.4575 28.6714C10.8255 28.6695 11.1102 28.6407 11.3125 28.5921L11.9721 28.3649L12.5305 28.0555L13.0443 27.7162L13.0513 27.7262L12.9997 27.9444L12.9967 27.9533V27.9553C12.9412 28.2211 13.1019 28.4393 13.3607 28.4651L13.3657 28.4711H13.3895H14.434H14.6304L14.6482 28.4631C14.92 28.4314 15.1749 28.2132 15.2344 27.9533L16.2273 23.6555L16.2789 23.3053L16.3027 22.977C16.3067 22.368 16.0438 21.9167 15.529 21.628ZM13.333 26.4605L13.1207 26.7402L12.5851 27.017C12.3332 27.1191 12.0941 27.1707 11.8729 27.1707C11.5377 27.1707 11.2748 27.1221 11.0973 27.0229L10.8344 26.5121C10.8344 26.2354 10.8979 26.0162 11.0338 25.8475L11.6111 25.4547C11.858 25.3714 12.1596 25.301 12.5087 25.2524C12.8202 25.2137 13.4351 25.1433 13.5155 25.1413L13.6097 25.307C13.5909 25.4012 13.4163 26.1312 13.333 26.4605Z" fill="black"/>
<path d="M40.2646 21.634C39.7478 21.3444 38.9375 21.1986 37.8315 21.1986C37.283 21.1986 36.7355 21.2413 36.185 21.3295C35.7763 21.3891 35.7357 21.4019 35.4837 21.4555C34.9669 21.5676 34.8866 22.0863 34.8866 22.0863L34.72 22.7708C34.6267 23.2082 34.8727 23.1883 34.9878 23.1546C35.2149 23.0872 35.3369 23.0207 35.7952 22.9136C36.2346 22.8144 36.7037 22.741 37.0737 22.743C37.6163 22.743 38.0329 22.8015 38.3096 22.9185C38.5853 23.0376 38.7202 23.2439 38.7202 23.5365L38.6994 23.7279L38.505 23.8519C37.7244 23.8985 37.165 23.9699 36.4944 24.0681C35.8339 24.1604 35.2506 24.3211 34.7666 24.5433C34.2498 24.7724 33.86 25.0789 33.5942 25.4697C33.3313 25.8615 33.2034 26.3356 33.2034 26.8881C33.2034 27.4167 33.3898 27.8502 33.7608 28.1835C34.1308 28.5118 34.6118 28.6764 35.1931 28.6764C35.5591 28.6725 35.8438 28.6487 36.0471 28.5961L36.7047 28.3719L37.2681 28.0625L37.778 27.7193L37.7869 27.7302L37.7403 27.9504L37.7353 27.9544L37.7373 27.9583C37.6758 28.2241 37.8375 28.4443 38.0993 28.4681L38.1013 28.4731H38.1251C38.2967 28.4731 38.8899 28.4731 39.1725 28.4731H39.365L39.3858 28.4662C39.6546 28.4334 39.9085 28.2152 39.9651 27.9524L40.9609 23.6605L41.0135 23.3084L41.0422 22.979C41.0432 22.372 40.7834 21.9227 40.2646 21.634ZM38.0735 26.4665L37.8523 26.7492L37.3217 27.024C37.0697 27.1251 36.8297 27.1777 36.6125 27.1777C36.2663 27.1777 36.0104 27.1281 35.8378 27.0289L35.572 26.5201C35.572 26.2424 35.6365 26.0251 35.7664 25.8535C35.8983 25.6919 36.0997 25.5589 36.3496 25.4617C36.5936 25.3784 36.8952 25.311 37.2463 25.2604C37.5558 25.2217 38.1688 25.1493 38.2481 25.1483L38.3443 25.3139C38.3304 25.4082 38.1549 26.1352 38.0735 26.4665Z" fill="black"/>
<path d="M33.6933 20.4676C33.5227 20.1373 33.2668 19.8705 32.9435 19.6622C32.6122 19.4559 32.2194 19.3111 31.7601 19.2278C31.3088 19.1474 30.7702 19.1038 30.1582 19.1028L27.3105 19.1048C27.014 19.1097 26.7293 19.3398 26.6609 19.6225L24.7455 27.9603C24.6761 28.243 24.8665 28.4771 25.1562 28.4771L26.52 28.4751C26.8096 28.4771 27.1062 28.245 27.1747 27.9593L27.6359 25.9349C27.7033 25.6532 27.9959 25.4161 28.2905 25.4181H28.6803C30.3477 25.4181 31.6401 25.0749 32.5705 24.3955C33.49 23.7081 33.9552 22.8085 33.9552 21.6906C33.9502 21.2036 33.8659 20.792 33.6933 20.4676ZM30.7564 23.1943C30.3457 23.4899 29.7724 23.6407 29.0384 23.6407H28.6992C28.4066 23.6436 28.2171 23.4056 28.2826 23.1219L28.6952 21.3554C28.7557 21.0727 29.0513 20.8356 29.3459 20.8386L29.7873 20.8356C30.311 20.8386 30.7038 20.9249 30.9716 21.0994C31.2384 21.274 31.3644 21.5478 31.3674 21.9108C31.3703 22.4643 31.165 22.8908 30.7564 23.1943Z" fill="black"/>
<path d="M45.3709 19.689C45.4334 19.4043 45.2549 19.1732 44.9623 19.1772H43.7423C43.4923 19.1772 43.2671 19.3627 43.157 19.5908L43.0896 19.6959L43.0281 19.9657L41.3231 27.7163L41.2675 27.9544L41.2695 27.9603C41.213 28.2152 41.3697 28.4077 41.6117 28.4444L41.6325 28.4731H42.8992C43.1471 28.4731 43.3802 28.2847 43.4864 28.0526L43.5518 27.9534L45.3749 19.69L45.3709 19.689Z" fill="black"/>
<path d="M24.7833 21.2978C24.461 21.3018 23.1507 21.2978 23.1507 21.2978C22.8571 21.2978 22.4802 21.5349 22.2937 21.8176C22.2937 21.8176 20.3436 25.1642 20.1542 25.5005L19.928 25.4975L19.321 21.8404C19.2536 21.5528 18.953 21.3068 18.5791 21.3068L17.3591 21.3088C17.0655 21.3088 16.8849 21.5428 16.9514 21.8285C16.9514 21.8285 17.8778 27.1004 18.0633 28.3412C18.1496 29.0256 18.0524 29.1476 18.0524 29.1476L16.8463 31.2484C16.6677 31.5341 16.7639 31.7672 17.0565 31.7672L18.467 31.7652C18.7606 31.7652 19.1464 31.5341 19.321 31.2475L24.7466 22.0705C24.7466 22.0715 25.2684 21.2869 24.7833 21.2978Z" fill="black"/>
</g>
</svg>
