<svg width="28" height="27" viewBox="0 0 28 27" fill="none" xmlns="http://www.w3.org/2000/svg">
<g clip-path="url(#clip0)">
<path d="M25.1893 0H2.79005C1.74743 0 0.902313 0.845118 0.902313 1.88774V24.287C0.902313 25.3296 1.74743 26.1747 2.79005 26.1747H25.1893C26.2319 26.1747 27.077 25.3296 27.077 24.287V1.88774C27.077 0.845118 26.2319 0 25.1893 0V0ZM19.9652 10.2041C19.971 10.3329 19.9738 10.4623 19.9738 10.5923C19.9738 14.5617 16.9524 19.139 11.4269 19.1392H11.4271H11.4269C9.73052 19.1392 8.15192 18.6419 6.82253 17.7898C7.05758 17.8176 7.29681 17.8314 7.53905 17.8314C8.94651 17.8314 10.2417 17.3513 11.27 16.5455C9.95498 16.5211 8.84626 15.6527 8.46364 14.4591C8.64677 14.4942 8.83508 14.5134 9.02819 14.5134C9.30237 14.5134 9.56797 14.4764 9.82038 14.4075C8.44587 14.1324 7.41044 12.9176 7.41044 11.463C7.41044 11.4494 7.41044 11.4373 7.41084 11.4247C7.81563 11.6497 8.27852 11.7851 8.77138 11.8003C7.9648 11.2621 7.4346 10.3421 7.4346 9.29989C7.4346 8.74953 7.58338 8.23391 7.84139 7.78998C9.32274 9.60763 11.5366 10.803 14.0332 10.9286C13.9817 10.7086 13.9551 10.4793 13.9551 10.2437C13.9551 8.58538 15.3005 7.24002 16.9594 7.24002C17.8234 7.24002 18.6039 7.60526 19.152 8.18918C19.8364 8.05418 20.479 7.80416 21.0595 7.46008C20.8349 8.16122 20.3588 8.74953 19.7385 9.12156C20.3462 9.04887 20.9253 8.88772 21.4635 8.64848C21.0615 9.25097 20.5517 9.78016 19.9652 10.2041Z" fill="#262626"/>
</g>
<defs>
<clipPath id="clip0">
<rect width="26.1747" height="26.1747" fill="white" transform="translate(0.902313)"/>
</clipPath>
</defs>
</svg>
