<svg width="50" height="50" viewBox="0 0 50 50" fill="none" xmlns="http://www.w3.org/2000/svg">
<path d="M20.4375 17.1766L17.9281 32.7923H21.9391L24.4469 17.1766H20.4375ZM32.536 23.5376C31.1344 22.8454 30.2751 22.3783 30.2751 21.6703C30.2922 21.0267 31.0017 20.3672 32.586 20.3672C33.8892 20.3345 34.847 20.6407 35.5736 20.9454L35.9376 21.1079L36.4829 17.8407C35.6906 17.5345 34.4345 17.197 32.8829 17.197C28.922 17.197 26.1329 19.2564 26.1156 22.2018C26.0828 24.3753 28.1124 25.5814 29.6313 26.3049C31.1829 27.0471 31.711 27.5283 31.711 28.1878C31.6939 29.2002 30.4564 29.6674 29.3017 29.6674C27.7018 29.6674 26.8424 29.4268 25.5377 28.8626L25.0095 28.622L24.4486 32.0174C25.3908 32.4362 27.1236 32.8049 28.9221 32.8237C33.1315 32.8237 35.8706 30.7955 35.905 27.6565C35.9187 25.9346 34.8485 24.6157 32.536 23.5376ZM46.7657 17.225H43.6625C42.7062 17.225 41.9796 17.5 41.5656 18.4813L35.6077 32.7923H39.8171L40.9764 29.6939H45.6858L46.2874 32.8049H50L46.7657 17.225ZM42.1438 26.5671C42.225 26.575 43.7595 21.5092 43.7595 21.5092L44.9813 26.5671C44.9813 26.5671 42.936 26.5671 42.1438 26.5671ZM14.5766 17.1766L10.6469 27.7861L10.2188 25.6938C9.49221 23.2797 7.21417 20.6563 4.67188 19.3532L8.27033 32.7767H12.5142L18.8205 17.1783H14.5766V17.1766Z" fill="#2E2E2E"/>
<path d="M8.89692 19.1912C8.59068 18.0005 7.61403 17.1974 6.28762 17.1803H0.0640929L0 17.4692C4.85478 18.6661 8.92965 22.3489 10.2516 25.813L8.89692 19.1912Z" fill="#888680"/>
</svg>
