<svg width="80" height="80" viewBox="0 0 80 80" fill="none" xmlns="http://www.w3.org/2000/svg">
<g clip-path="url(#clip0)">
<path d="M21.9769 66.8666C17.0791 66.8666 12.2214 65.8319 8.59234 63.8521C5.13484 61.966 2.83438 59.29 1.93938 56.1133C0.15172 49.7692 4.07672 41.8258 11.9387 35.8764C13.0023 35.0719 14.5167 35.2816 15.3211 36.3449C16.1258 37.4081 15.9161 38.9225 14.8528 39.7272C11.8275 42.0164 9.34906 44.7997 7.87375 47.5641C6.44953 50.2328 6.00469 52.7363 6.58734 54.8036C7.12953 56.7277 8.58219 58.3456 10.905 59.6127C15.7352 62.2475 23.6516 62.8085 29.7281 60.946C42.8006 56.9394 46.448 41.5169 46.5969 40.8624C46.8927 39.5622 48.187 38.7475 49.4867 39.0435C50.787 39.3392 51.6014 40.633 51.3056 41.9333C51.1873 42.4536 50.0622 47.1647 47.0352 52.31C43.0989 59 37.6037 63.5828 31.1433 65.5628C28.2819 66.4399 25.1206 66.8666 21.9769 66.8666Z" fill="#F3EAE6"/>
<path d="M60.3631 80H23.211C20.0135 80 17.3004 77.6535 16.8396 74.4892L10.3987 30.2616H73.1754L66.7345 74.4892C66.2737 77.6535 63.5606 80 60.3631 80Z" fill="#ACA6D6"/>
<path d="M73.1754 25.4326H10.3987C9.06529 25.4326 7.98419 26.5136 7.98419 27.8472C7.98419 29.1806 9.06513 30.2617 10.3987 30.2617H73.1754C74.5089 30.2617 75.59 29.1808 75.59 27.8472C75.59 26.5136 74.5089 25.4326 73.1754 25.4326Z" fill="#F3EAE6"/>
<path d="M73.1755 25.4326H68.3466C69.68 25.4326 70.7611 26.5137 70.7611 27.8472C70.7611 29.1806 69.6802 30.2617 68.3466 30.2617H73.1755C74.5089 30.2617 75.59 29.1808 75.59 27.8472C75.59 26.5136 74.5089 25.4326 73.1755 25.4326Z" fill="#E1D3CE"/>
<path d="M67.9948 30.2616C67.443 33.7256 66.8912 37.1899 66.3394 40.6539C62.9387 62.002 44.4864 77.6863 22.8694 77.6028C21.3736 77.597 19.8779 77.5913 18.3822 77.5855C18.3151 77.5855 18.2486 77.583 18.182 77.5809C19.3697 79.0653 21.1936 80 23.2111 80H60.3631C63.5606 80 66.2737 77.6535 66.7345 74.4892L73.1754 30.2616H67.9948Z" fill="#978ECB"/>
<path d="M6.58711 54.8036C7.1293 56.7277 8.58195 58.3456 10.9048 59.6127C15.7349 62.2475 23.6513 62.8084 29.7279 60.9459C42.8004 56.9394 46.4477 41.5169 46.5966 40.8623C46.8924 39.5622 48.1868 38.7475 49.4865 39.0434C50.7868 39.3392 51.6012 40.633 51.3054 41.9333C51.1871 42.4536 50.062 47.1647 47.0349 52.31C43.0987 59 37.6035 63.5828 31.143 65.5628C28.282 66.4397 25.1207 66.8664 21.977 66.8664C17.0791 66.8664 12.2215 65.8317 8.59242 63.8519C5.13492 61.9658 2.83445 59.2898 1.93945 56.1131L6.58711 54.8036Z" fill="#F3EAE6"/>
<path d="M54.4174 43.7689C55.1304 40.7526 53.2631 37.7294 50.2468 37.0163C47.2305 36.3033 44.2072 38.1706 43.4942 41.1869C42.7812 44.2032 44.6484 47.2265 47.6648 47.9395C50.6811 48.6525 53.7043 46.7853 54.4174 43.7689Z" fill="#978ECB"/>
<path d="M42.9298 30.0986C42.9298 32.3383 41.1142 34.1539 38.8745 34.1539C36.6348 34.1539 34.8192 32.3383 34.8192 30.0986V43.3783C34.8192 46.2847 32.4631 48.6408 29.5567 48.6408C26.6503 48.6408 24.294 46.2847 24.294 43.3781V26.3984C24.294 25.865 23.8617 25.4327 23.3282 25.4327H12.3556C13.0528 16.575 20.4615 9.60439 29.4984 9.60439C34.2003 9.60439 38.4608 11.4922 41.5651 14.5503C43.0625 13.9589 44.6923 13.6305 46.3998 13.6305C50.8692 13.6305 54.8158 15.8588 57.1968 19.2627C58.6329 17.5536 60.7725 16.4553 63.1703 16.4166C67.6256 16.3447 71.2722 20.0594 71.2722 24.5153V25.4327H43.8956C43.3622 25.4327 42.9298 25.865 42.9298 26.3984V30.0986Z" fill="#B3DAFE"/>
<path d="M31.9671 28.1039C30.824 28.3047 29.9904 29.2977 29.9904 30.4581V43.3781C29.9904 45.4139 28.8337 47.1785 27.1423 48.0538C27.8656 48.428 28.6862 48.6408 29.5568 48.6408C32.4632 48.6408 34.8193 46.2847 34.8193 43.3783V30.4497C34.8193 28.9641 33.4785 27.8385 32.0154 28.0953C31.9993 28.0983 31.9832 28.1011 31.9671 28.1039Z" fill="#8AC9FE"/>
<path d="M42.93 26.4991H41.0411C39.4174 26.4991 38.1011 27.8153 38.1011 29.4391V30.0986C38.1011 31.4336 37.4558 32.6178 36.4603 33.3567C37.1349 33.8574 37.9702 34.1539 38.8749 34.1539C41.0058 34.1539 42.7517 32.5099 42.9163 30.4213C42.9255 30.2763 42.9302 30.1356 42.9302 30.0013V26.4991H42.93Z" fill="#8AC9FE"/>
<path d="M24.6695 12.0188C28.5804 12.0188 32.186 13.3249 35.0749 15.5242C36.1184 16.3186 37.4598 16.6341 38.7404 16.352C39.652 16.1513 40.5988 16.0449 41.5709 16.0449C44.7798 16.0449 47.7193 17.1935 50.0032 19.1013C51.3705 20.2435 53.3068 20.4758 54.899 19.6764C55.549 19.3502 56.2499 19.11 56.9865 18.971C54.5873 15.732 50.7401 13.6303 46.3998 13.6303C44.6923 13.6303 43.0624 13.9588 41.5651 14.5502C38.4607 11.492 34.2002 9.60423 29.4984 9.60423C25.7681 9.60423 22.3157 10.793 19.4977 12.811C21.1302 12.2967 22.8673 12.0188 24.6695 12.0188Z" fill="#8AC9FE"/>
<path d="M63.3011 16.4153C61.0333 16.4153 58.9888 17.3644 57.5374 18.8849C57.8441 18.8491 58.1558 18.8299 58.4722 18.8299C62.4077 18.8299 65.6745 21.6827 66.3238 25.4325H71.2722V24.3863C71.272 19.9841 67.7034 16.4153 63.3011 16.4153Z" fill="#8AC9FE"/>
<path d="M78.4246 4.36283C78.7565 2.31537 77.3658 0.386503 75.3183 0.0545939C73.2709 -0.277315 71.342 1.11342 71.0101 3.16088C70.6782 5.20835 72.0689 7.13721 74.1164 7.46912C76.1638 7.80103 78.0927 6.4103 78.4246 4.36283Z" fill="#B3DAFE"/>
<path d="M52.6827 8.16979C53.8141 7.03848 53.8141 5.20426 52.6827 4.07295C51.5514 2.94163 49.7172 2.94163 48.5859 4.07295C47.4546 5.20426 47.4546 7.03848 48.5859 8.16979C49.7172 9.3011 51.5514 9.3011 52.6827 8.16979Z" fill="#B3DAFE"/>
<path d="M63.0366 10.4441C63.5079 9.97277 63.5079 9.20854 63.0366 8.73717C62.5652 8.26581 61.801 8.26581 61.3296 8.73717C60.8582 9.20854 60.8583 9.97277 61.3296 10.4441C61.801 10.9155 62.5652 10.9155 63.0366 10.4441Z" fill="#B3DAFE"/>
</g>
<defs>
<clipPath id="clip0">
<rect width="80" height="80" fill="white"/>
</clipPath>
</defs>
</svg>
